<svg width="46" height="46" viewBox="0 0 46 46" fill="none" xmlns="http://www.w3.org/2000/svg">
<rect width="46" height="46" rx="23" fill="#70A1E6"/>
<path fill-rule="evenodd" clip-rule="evenodd" d="M23 14.521C18.3197 14.521 14.5209 18.3199 14.5209 23.0002C14.5209 27.6805 18.3197 31.4793 23 31.4793C27.6803 31.4793 31.4792 27.6805 31.4792 23.0002C31.4792 18.3199 27.6803 14.521 23 14.521ZM13.1459 23.0002C13.1459 17.5605 17.5603 13.146 23 13.146C28.4397 13.146 32.8542 17.5605 32.8542 23.0002C32.8542 28.4399 28.4397 32.8543 23 32.8543C17.5603 32.8543 13.1459 28.4399 13.1459 23.0002Z" fill="#F1F1F1"/>
<path fill-rule="evenodd" clip-rule="evenodd" d="M22.6609 18.1968C23.0406 18.1968 23.3484 18.5046 23.3484 18.8843V22.6426C23.3484 22.7834 23.4021 22.9874 23.5216 23.1969C23.6412 23.4065 23.7893 23.5565 23.9097 23.6278L23.9115 23.6289L23.9115 23.6289L26.7532 25.3247C27.0793 25.5193 27.1858 25.9414 26.9913 26.2674C26.7967 26.5935 26.3746 26.7001 26.0486 26.5055L23.2087 24.8107C23.2084 24.8105 23.2081 24.8104 23.2078 24.8102C22.8336 24.5882 22.5329 24.2388 22.3272 23.8781C22.1213 23.517 21.9734 23.0794 21.9734 22.6426V18.8843C21.9734 18.5046 22.2812 18.1968 22.6609 18.1968Z" fill="#F1F1F1"/>
</svg>
