<svg width="28" height="29" viewBox="0 0 28 29" fill="none" xmlns="http://www.w3.org/2000/svg">
<path d="M20.6 13.3767V8.81081H21.2V14.6656V14.799L21.2876 14.8937L22.7 16.4101L22.2758 16.8664L21.7118 16.2606L21.2 15.7096V16.4881V16.8664C21.2 17.2788 21.056 17.6545 20.8184 17.94L20.639 18.1546L20.8178 18.3699C21.0368 18.6321 21.176 18.9711 21.197 19.3443L21.2 19.4487V20.0886C21.2 20.501 21.056 20.8767 20.8184 21.1622L20.639 21.3768L20.8178 21.5921C21.0368 21.8544 21.176 22.1933 21.197 22.5665L21.2 22.6709V23.3108C21.2 24.1673 20.5778 24.8678 19.7924 24.9187L19.6958 24.9219H7.69995C6.90255 24.9219 6.25035 24.2536 6.20295 23.4101L6.19995 23.3057V22.6664C6.19995 22.2533 6.34395 21.8776 6.58155 21.5921L6.76095 21.3775L6.58155 21.1622C6.36315 20.8999 6.22395 20.561 6.20295 20.1878L6.19995 20.0834V19.4441C6.19995 19.0311 6.34395 18.6553 6.58155 18.3699L6.76095 18.1553L6.58155 17.94C6.36915 17.6848 6.23115 17.3568 6.20475 16.9946L6.19995 16.8599V16.4881V15.7102L5.68755 16.2606L5.12415 16.8664L4.69995 16.4107L12.6392 7.88281C13.2002 7.28026 14.096 7.25512 14.6846 7.80677L14.7638 7.88668L20.0876 13.6048L20.6 14.1545V13.3767ZM11 22.0213V21.6991H10.7L7.69995 21.6997C7.23795 21.6997 6.85815 22.0728 6.80595 22.5536L6.80475 22.5633L6.80415 22.5723L6.80055 22.6477L6.79995 22.6567V22.6664V23.3108C6.79995 23.8064 7.14735 24.215 7.59555 24.271L7.60395 24.2717L7.61235 24.2723L7.68255 24.2768L7.69095 24.2775H7.69995H10.7H11V23.9553V22.0213ZM15.8 18.1553V17.833H15.5H11.9H11.6V18.1553V23.9553V24.2775H11.9H15.5H15.8V23.9553V18.1553ZM19.7174 21.6997H19.7084H19.7L16.7 21.6991H16.4V22.0213V23.9553V24.2775H16.7H19.7C20.1614 24.2775 20.5418 23.9037 20.594 23.4229L20.5946 23.4139L20.5952 23.4043L20.5994 23.3289L20.6 23.3198V23.3108V22.6664C20.6 22.1701 20.2526 21.7616 19.8044 21.7061L19.796 21.7049L19.787 21.7042L19.7174 21.6997ZM19.7174 18.4775H19.7084H19.7L16.7 18.4768H16.4V18.7991V20.7324V21.0546H16.7L19.7 21.0553C20.1614 21.0553 20.5418 20.6815 20.594 20.2007L20.5946 20.1917L20.5952 20.182L20.5994 20.1066L20.6 20.0976V20.0886V19.4441C20.6 18.9479 20.2526 18.5393 19.8044 18.4839L19.796 18.4826L19.787 18.482L19.7174 18.4775ZM11 18.7991V18.4768H10.7L7.69995 18.4775C7.23795 18.4775 6.85815 18.8506 6.80595 19.3314L6.80475 19.341L6.80415 19.3501L6.80055 19.4255L6.79995 19.4345V19.4441V20.0886C6.79995 20.5842 7.14735 20.9927 7.59555 21.0488L7.60395 21.0495L7.61235 21.0501L7.68255 21.0546L7.69095 21.0553H7.69995L10.7 21.0546H11V20.7324V18.7991ZM6.80595 16.1091L6.80475 16.1188L6.80415 16.1278L6.80055 16.2032L6.79995 16.2123V16.2219V16.8664C6.79995 17.3619 7.14735 17.7705 7.59555 17.8266L7.60395 17.8272L7.61235 17.8279L7.68255 17.8324L7.69095 17.833H7.69995L10.8608 17.8324H11.0336L11.12 17.6713C11.2652 17.4032 11.5256 17.2169 11.8274 17.1912L11.9054 17.1886H15.5C15.8324 17.1886 16.1234 17.3819 16.2794 17.6719L16.3664 17.8324H16.5392L19.7 17.833C20.1614 17.833 20.5418 17.4593 20.594 16.9785L20.5946 16.9695L20.5952 16.9598L20.5994 16.8844L20.6 16.8754V16.8664V16.2219C20.6 15.6877 20.1968 15.2553 19.7 15.2553H7.69995C7.23795 15.2553 6.85815 15.6284 6.80595 16.1091ZM17.8634 12.1265L17.7758 12.0324H17.6516H9.74835H9.62415L9.53595 12.1265L7.73595 14.0598L7.22415 14.6102H7.94835H19.4516H20.1758L19.6634 14.0598L17.8634 12.1265ZM13.148 8.25852L13.1408 8.26497L13.1336 8.27141L13.0772 8.3249L13.07 8.33135L13.0634 8.33843L10.736 10.8376L10.2236 11.3879H10.9484H16.4516H17.1758L16.6634 10.8376L14.336 8.33843C14.0114 7.98979 13.5014 7.96337 13.148 8.25852Z" fill="#1F4B43"/>
<path d="M20.6 13.3767V8.81081H21.2V14.6656V14.799L21.2876 14.8937L22.7 16.4101L22.2758 16.8664L21.7118 16.2606L21.2 15.7096V16.4881V16.8664C21.2 17.2788 21.056 17.6545 20.8184 17.94L20.639 18.1546L20.8178 18.3699C21.0368 18.6321 21.176 18.9711 21.197 19.3443L21.2 19.4487V20.0886C21.2 20.501 21.056 20.8767 20.8184 21.1622L20.639 21.3768L20.8178 21.5921C21.0368 21.8544 21.176 22.1933 21.197 22.5665L21.2 22.6709V23.3108C21.2 24.1673 20.5778 24.8678 19.7924 24.9187L19.6958 24.9219H7.69995C6.90255 24.9219 6.25035 24.2536 6.20295 23.4101L6.19995 23.3057V22.6664C6.19995 22.2533 6.34395 21.8776 6.58155 21.5921L6.76095 21.3775L6.58155 21.1622C6.36315 20.8999 6.22395 20.561 6.20295 20.1878L6.19995 20.0834V19.4441C6.19995 19.0311 6.34395 18.6553 6.58155 18.3699L6.76095 18.1553L6.58155 17.94C6.36915 17.6848 6.23115 17.3568 6.20475 16.9946L6.19995 16.8599V16.4881V15.7102L5.68755 16.2606L5.12415 16.8664L4.69995 16.4107L12.6392 7.88281C13.2002 7.28026 14.096 7.25512 14.6846 7.80677L14.7638 7.88668L20.0876 13.6048L20.6 14.1545V13.3767ZM11 22.0213V21.6991H10.7L7.69995 21.6997C7.23795 21.6997 6.85815 22.0728 6.80595 22.5536L6.80475 22.5633L6.80415 22.5723L6.80055 22.6477L6.79995 22.6567V22.6664V23.3108C6.79995 23.8064 7.14735 24.215 7.59555 24.271L7.60395 24.2717L7.61235 24.2723L7.68255 24.2768L7.69095 24.2775H7.69995H10.7H11V23.9553V22.0213ZM15.8 18.1553V17.833H15.5H11.9H11.6V18.1553V23.9553V24.2775H11.9H15.5H15.8V23.9553V18.1553ZM19.7174 21.6997H19.7084H19.7L16.7 21.6991H16.4V22.0213V23.9553V24.2775H16.7H19.7C20.1614 24.2775 20.5418 23.9037 20.594 23.4229L20.5946 23.4139L20.5952 23.4043L20.5994 23.3289L20.6 23.3198V23.3108V22.6664C20.6 22.1701 20.2526 21.7616 19.8044 21.7061L19.796 21.7049L19.787 21.7042L19.7174 21.6997ZM19.7174 18.4775H19.7084H19.7L16.7 18.4768H16.4V18.7991V20.7324V21.0546H16.7L19.7 21.0553C20.1614 21.0553 20.5418 20.6815 20.594 20.2007L20.5946 20.1917L20.5952 20.182L20.5994 20.1066L20.6 20.0976V20.0886V19.4441C20.6 18.9479 20.2526 18.5393 19.8044 18.4839L19.796 18.4826L19.787 18.482L19.7174 18.4775ZM11 18.7991V18.4768H10.7L7.69995 18.4775C7.23795 18.4775 6.85815 18.8506 6.80595 19.3314L6.80475 19.341L6.80415 19.3501L6.80055 19.4255L6.79995 19.4345V19.4441V20.0886C6.79995 20.5842 7.14735 20.9927 7.59555 21.0488L7.60395 21.0495L7.61235 21.0501L7.68255 21.0546L7.69095 21.0553H7.69995L10.7 21.0546H11V20.7324V18.7991ZM6.80595 16.1091L6.80475 16.1188L6.80415 16.1278L6.80055 16.2032L6.79995 16.2123V16.2219V16.8664C6.79995 17.3619 7.14735 17.7705 7.59555 17.8266L7.60395 17.8272L7.61235 17.8279L7.68255 17.8324L7.69095 17.833H7.69995L10.8608 17.8324H11.0336L11.12 17.6713C11.2652 17.4032 11.5256 17.2169 11.8274 17.1912L11.9054 17.1886H15.5C15.8324 17.1886 16.1234 17.3819 16.2794 17.6719L16.3664 17.8324H16.5392L19.7 17.833C20.1614 17.833 20.5418 17.4593 20.594 16.9785L20.5946 16.9695L20.5952 16.9598L20.5994 16.8844L20.6 16.8754V16.8664V16.2219C20.6 15.6877 20.1968 15.2553 19.7 15.2553H7.69995C7.23795 15.2553 6.85815 15.6284 6.80595 16.1091ZM17.8634 12.1265L17.7758 12.0324H17.6516H9.74835H9.62415L9.53595 12.1265L7.73595 14.0598L7.22415 14.6102H7.94835H19.4516H20.1758L19.6634 14.0598L17.8634 12.1265ZM13.148 8.25852L13.1408 8.26497L13.1336 8.27141L13.0772 8.3249L13.07 8.33135L13.0634 8.33843L10.736 10.8376L10.2236 11.3879H10.9484H16.4516H17.1758L16.6634 10.8376L14.336 8.33843C14.0114 7.98979 13.5014 7.96337 13.148 8.25852Z" stroke="#1F4B43"/>
</svg>
