<svg width="27" height="29" viewBox="0 0 27 29" fill="none" xmlns="http://www.w3.org/2000/svg">
<path d="M20.1 13.3767V8.81081H20.7V14.6656V14.799L20.7876 14.8937L22.2 16.4101L21.7758 16.8664L21.2118 16.2606L20.7 15.7096V16.4881V16.8664C20.7 17.2788 20.556 17.6545 20.3184 17.94L20.139 18.1546L20.3178 18.3699C20.5368 18.6321 20.676 18.9711 20.697 19.3443L20.7 19.4487V20.0886C20.7 20.501 20.556 20.8767 20.3184 21.1622L20.139 21.3768L20.3178 21.5921C20.5368 21.8544 20.676 22.1933 20.697 22.5665L20.7 22.6709V23.3108C20.7 24.1673 20.0778 24.8678 19.2924 24.9187L19.1958 24.9219H7.19995C6.40255 24.9219 5.75035 24.2536 5.70295 23.4101L5.69995 23.3057V22.6664C5.69995 22.2533 5.84395 21.8776 6.08155 21.5921L6.26095 21.3775L6.08155 21.1622C5.86315 20.8999 5.72395 20.561 5.70295 20.1878L5.69995 20.0834V19.4441C5.69995 19.0311 5.84395 18.6553 6.08155 18.3699L6.26095 18.1553L6.08155 17.94C5.86915 17.6848 5.73115 17.3568 5.70475 16.9946L5.69995 16.8599V16.4881V15.7102L5.18755 16.2606L4.62415 16.8664L4.19995 16.4107L12.1392 7.88281C12.7002 7.28026 13.596 7.25512 14.1846 7.80677L14.2638 7.88668L19.5876 13.6048L20.1 14.1545V13.3767ZM10.5 22.0213V21.6991H10.2L7.19995 21.6997C6.73795 21.6997 6.35815 22.0728 6.30595 22.5536L6.30475 22.5633L6.30415 22.5723L6.30055 22.6477L6.29995 22.6567V22.6664V23.3108C6.29995 23.8064 6.64735 24.215 7.09555 24.271L7.10395 24.2717L7.11235 24.2723L7.18255 24.2768L7.19095 24.2775H7.19995H10.2H10.5V23.9553V22.0213ZM15.3 18.1553V17.833H15H11.4H11.1V18.1553V23.9553V24.2775H11.4H15H15.3V23.9553V18.1553ZM19.2174 21.6997H19.2084H19.2L16.2 21.6991H15.9V22.0213V23.9553V24.2775H16.2H19.2C19.6614 24.2775 20.0418 23.9037 20.094 23.4229L20.0946 23.4139L20.0952 23.4043L20.0994 23.3289L20.1 23.3198V23.3108V22.6664C20.1 22.1701 19.7526 21.7616 19.3044 21.7061L19.296 21.7049L19.287 21.7042L19.2174 21.6997ZM19.2174 18.4775H19.2084H19.2L16.2 18.4768H15.9V18.7991V20.7324V21.0546H16.2L19.2 21.0553C19.6614 21.0553 20.0418 20.6815 20.094 20.2007L20.0946 20.1917L20.0952 20.182L20.0994 20.1066L20.1 20.0976V20.0886V19.4441C20.1 18.9479 19.7526 18.5393 19.3044 18.4839L19.296 18.4826L19.287 18.482L19.2174 18.4775ZM10.5 18.7991V18.4768H10.2L7.19995 18.4775C6.73795 18.4775 6.35815 18.8506 6.30595 19.3314L6.30475 19.341L6.30415 19.3501L6.30055 19.4255L6.29995 19.4345V19.4441V20.0886C6.29995 20.5842 6.64735 20.9927 7.09555 21.0488L7.10395 21.0495L7.11235 21.0501L7.18255 21.0546L7.19095 21.0553H7.19995L10.2 21.0546H10.5V20.7324V18.7991ZM6.30595 16.1091L6.30475 16.1188L6.30415 16.1278L6.30055 16.2032L6.29995 16.2123V16.2219V16.8664C6.29995 17.3619 6.64735 17.7705 7.09555 17.8266L7.10395 17.8272L7.11235 17.8279L7.18255 17.8324L7.19095 17.833H7.19995L10.3608 17.8324H10.5336L10.62 17.6713C10.7652 17.4032 11.0256 17.2169 11.3274 17.1912L11.4054 17.1886H15C15.3324 17.1886 15.6234 17.3819 15.7794 17.6719L15.8664 17.8324H16.0392L19.2 17.833C19.6614 17.833 20.0418 17.4593 20.094 16.9785L20.0946 16.9695L20.0952 16.9598L20.0994 16.8844L20.1 16.8754V16.8664V16.2219C20.1 15.6877 19.6968 15.2553 19.2 15.2553H7.19995C6.73795 15.2553 6.35815 15.6284 6.30595 16.1091ZM17.3634 12.1265L17.2758 12.0324H17.1516H9.24835H9.12415L9.03595 12.1265L7.23595 14.0598L6.72415 14.6102H7.44835H18.9516H19.6758L19.1634 14.0598L17.3634 12.1265ZM12.648 8.25852L12.6408 8.26497L12.6336 8.27141L12.5772 8.3249L12.57 8.33135L12.5634 8.33843L10.236 10.8376L9.72355 11.3879H10.4484H15.9516H16.6758L16.1634 10.8376L13.836 8.33843C13.5114 7.98979 13.0014 7.96337 12.648 8.25852Z" fill="white"/>
<path d="M20.1 13.3767V8.81081H20.7V14.6656V14.799L20.7876 14.8937L22.2 16.4101L21.7758 16.8664L21.2118 16.2606L20.7 15.7096V16.4881V16.8664C20.7 17.2788 20.556 17.6545 20.3184 17.94L20.139 18.1546L20.3178 18.3699C20.5368 18.6321 20.676 18.9711 20.697 19.3443L20.7 19.4487V20.0886C20.7 20.501 20.556 20.8767 20.3184 21.1622L20.139 21.3768L20.3178 21.5921C20.5368 21.8544 20.676 22.1933 20.697 22.5665L20.7 22.6709V23.3108C20.7 24.1673 20.0778 24.8678 19.2924 24.9187L19.1958 24.9219H7.19995C6.40255 24.9219 5.75035 24.2536 5.70295 23.4101L5.69995 23.3057V22.6664C5.69995 22.2533 5.84395 21.8776 6.08155 21.5921L6.26095 21.3775L6.08155 21.1622C5.86315 20.8999 5.72395 20.561 5.70295 20.1878L5.69995 20.0834V19.4441C5.69995 19.0311 5.84395 18.6553 6.08155 18.3699L6.26095 18.1553L6.08155 17.94C5.86915 17.6848 5.73115 17.3568 5.70475 16.9946L5.69995 16.8599V16.4881V15.7102L5.18755 16.2606L4.62415 16.8664L4.19995 16.4107L12.1392 7.88281C12.7002 7.28026 13.596 7.25512 14.1846 7.80677L14.2638 7.88668L19.5876 13.6048L20.1 14.1545V13.3767ZM10.5 22.0213V21.6991H10.2L7.19995 21.6997C6.73795 21.6997 6.35815 22.0728 6.30595 22.5536L6.30475 22.5633L6.30415 22.5723L6.30055 22.6477L6.29995 22.6567V22.6664V23.3108C6.29995 23.8064 6.64735 24.215 7.09555 24.271L7.10395 24.2717L7.11235 24.2723L7.18255 24.2768L7.19095 24.2775H7.19995H10.2H10.5V23.9553V22.0213ZM15.3 18.1553V17.833H15H11.4H11.1V18.1553V23.9553V24.2775H11.4H15H15.3V23.9553V18.1553ZM19.2174 21.6997H19.2084H19.2L16.2 21.6991H15.9V22.0213V23.9553V24.2775H16.2H19.2C19.6614 24.2775 20.0418 23.9037 20.094 23.4229L20.0946 23.4139L20.0952 23.4043L20.0994 23.3289L20.1 23.3198V23.3108V22.6664C20.1 22.1701 19.7526 21.7616 19.3044 21.7061L19.296 21.7049L19.287 21.7042L19.2174 21.6997ZM19.2174 18.4775H19.2084H19.2L16.2 18.4768H15.9V18.7991V20.7324V21.0546H16.2L19.2 21.0553C19.6614 21.0553 20.0418 20.6815 20.094 20.2007L20.0946 20.1917L20.0952 20.182L20.0994 20.1066L20.1 20.0976V20.0886V19.4441C20.1 18.9479 19.7526 18.5393 19.3044 18.4839L19.296 18.4826L19.287 18.482L19.2174 18.4775ZM10.5 18.7991V18.4768H10.2L7.19995 18.4775C6.73795 18.4775 6.35815 18.8506 6.30595 19.3314L6.30475 19.341L6.30415 19.3501L6.30055 19.4255L6.29995 19.4345V19.4441V20.0886C6.29995 20.5842 6.64735 20.9927 7.09555 21.0488L7.10395 21.0495L7.11235 21.0501L7.18255 21.0546L7.19095 21.0553H7.19995L10.2 21.0546H10.5V20.7324V18.7991ZM6.30595 16.1091L6.30475 16.1188L6.30415 16.1278L6.30055 16.2032L6.29995 16.2123V16.2219V16.8664C6.29995 17.3619 6.64735 17.7705 7.09555 17.8266L7.10395 17.8272L7.11235 17.8279L7.18255 17.8324L7.19095 17.833H7.19995L10.3608 17.8324H10.5336L10.62 17.6713C10.7652 17.4032 11.0256 17.2169 11.3274 17.1912L11.4054 17.1886H15C15.3324 17.1886 15.6234 17.3819 15.7794 17.6719L15.8664 17.8324H16.0392L19.2 17.833C19.6614 17.833 20.0418 17.4593 20.094 16.9785L20.0946 16.9695L20.0952 16.9598L20.0994 16.8844L20.1 16.8754V16.8664V16.2219C20.1 15.6877 19.6968 15.2553 19.2 15.2553H7.19995C6.73795 15.2553 6.35815 15.6284 6.30595 16.1091ZM17.3634 12.1265L17.2758 12.0324H17.1516H9.24835H9.12415L9.03595 12.1265L7.23595 14.0598L6.72415 14.6102H7.44835H18.9516H19.6758L19.1634 14.0598L17.3634 12.1265ZM12.648 8.25852L12.6408 8.26497L12.6336 8.27141L12.5772 8.3249L12.57 8.33135L12.5634 8.33843L10.236 10.8376L9.72355 11.3879H10.4484H15.9516H16.6758L16.1634 10.8376L13.836 8.33843C13.5114 7.98979 13.0014 7.96337 12.648 8.25852Z" stroke="white"/>
</svg>
