<svg width="23" height="22" viewBox="0 0 23 22" fill="none" xmlns="http://www.w3.org/2000/svg">
<path fill-rule="evenodd" clip-rule="evenodd" d="M16.9175 2.52084C15.9864 2.52084 15.24 3.2672 15.24 4.19834C15.24 5.09477 15.9294 5.81723 16.8022 5.87384C16.8754 5.86734 16.9504 5.86734 17.0236 5.87384C17.8949 5.81729 18.5873 5.09575 18.595 4.19588C18.5937 3.27329 17.8461 2.52084 16.9175 2.52084ZM13.865 4.19834C13.865 2.50781 15.227 1.14584 16.9175 1.14584C18.6098 1.14584 19.97 2.51871 19.97 4.19834V4.20325H19.97C19.9582 5.85226 18.6602 7.19114 17.0249 7.25039C16.9875 7.25174 16.95 7.25004 16.9129 7.2453C16.8758 7.25004 16.8383 7.25174 16.8009 7.25039C15.1665 7.19117 13.865 5.85203 13.865 4.19834Z" fill="#1F4B43"/>
<path fill-rule="evenodd" clip-rule="evenodd" d="M15.9098 8.11365C17.3034 7.86952 18.8925 8.10227 20.0477 8.86882L20.049 8.86965C20.8386 9.39605 21.3245 10.1588 21.3245 11.0092C21.3245 11.8595 20.8386 12.6223 20.049 13.1487C18.9023 13.9162 17.3322 14.1481 15.9421 13.9147C15.5677 13.8518 15.3151 13.4973 15.3779 13.1229C15.4408 12.7484 15.7953 12.4958 16.1698 12.5587C17.2908 12.7469 18.4884 12.539 19.285 12.0055L19.2862 12.0046C19.7891 11.6694 19.9495 11.2955 19.9495 11.0092C19.9495 10.723 19.7893 10.3493 19.2869 10.0141C18.4804 9.47932 17.2648 9.27222 16.1471 9.46803C15.7731 9.53355 15.4168 9.28347 15.3512 8.90947C15.2857 8.53547 15.5358 8.17917 15.9098 8.11365Z" fill="#1F4B43"/>
<path fill-rule="evenodd" clip-rule="evenodd" d="M3.00269 4.19834C3.00269 2.51871 4.36292 1.14584 6.05519 1.14584C7.74572 1.14584 9.10769 2.50781 9.10769 4.19834C9.10769 5.85203 7.80616 7.19117 6.17175 7.25039C6.13433 7.25174 6.09688 7.25004 6.05977 7.2453C6.02266 7.25004 5.98521 7.25174 5.94779 7.25039C4.31252 7.19114 3.01448 5.85226 3.0027 4.20325L3.00269 4.19834ZM4.37769 4.19589C4.38537 5.09575 5.07782 5.81729 5.94908 5.87384C6.02229 5.86734 6.09726 5.86734 6.17047 5.87384C7.04323 5.81723 7.73269 5.09477 7.73269 4.19834C7.73269 3.2672 6.98632 2.52084 6.05519 2.52084C5.12661 2.52084 4.37901 3.2733 4.37769 4.19589Z" fill="#1F4B43"/>
<path fill-rule="evenodd" clip-rule="evenodd" d="M3.6858 10.0141C4.49225 9.47932 5.70784 9.27222 6.8256 9.46803C7.1996 9.53355 7.5559 9.28347 7.62142 8.90947C7.68694 8.53547 7.43686 8.17917 7.06286 8.11365C5.66924 7.86952 4.08017 8.10227 2.92495 8.86882L2.92495 8.86882L2.92371 8.86965C2.13411 9.39605 1.64819 10.1588 1.64819 11.0092C1.64819 11.8593 2.13385 12.6219 2.92309 13.1483C4.06981 13.9161 5.6402 14.1481 7.03056 13.9147C7.40502 13.8518 7.65761 13.4973 7.59474 13.1229C7.53188 12.7484 7.17736 12.4958 6.80291 12.5587C5.68186 12.7469 4.48423 12.539 3.68767 12.0055L3.68642 12.0046C3.18353 11.6694 3.02319 11.2955 3.02319 11.0092C3.02319 10.723 3.1834 10.3493 3.6858 10.0141Z" fill="#1F4B43"/>
<path fill-rule="evenodd" clip-rule="evenodd" d="M11.4177 9.36834C10.4866 9.36834 9.74023 10.1147 9.74023 11.0458C9.74023 11.9423 10.4297 12.6647 11.3025 12.7213C11.3767 12.7148 11.4527 12.7148 11.5269 12.7216C12.3911 12.6721 13.0875 11.9481 13.0952 11.0434C13.0939 10.1208 12.3463 9.36834 11.4177 9.36834ZM8.36523 11.0458C8.36523 9.35531 9.7272 7.99334 11.4177 7.99334C13.11 7.99334 14.4702 9.36622 14.4702 11.0458V11.0508H14.4702C14.4585 12.6953 13.1637 14.0504 11.5202 14.0981C11.4844 14.0991 11.4486 14.0973 11.4131 14.0928C11.376 14.0975 11.3386 14.0992 11.3012 14.0979C9.66676 14.0387 8.36523 12.6995 8.36523 11.0458Z" fill="#1F4B43"/>
<path fill-rule="evenodd" clip-rule="evenodd" d="M11.5036 14.8821C12.5747 14.8821 13.6828 15.1488 14.549 15.7263C15.3386 16.2527 15.8245 17.0155 15.8245 17.8658C15.8245 18.7161 15.3387 19.4788 14.5493 20.0052C13.6794 20.5867 12.5717 20.8565 11.5002 20.8565C10.4286 20.8565 9.32088 20.5867 8.451 20.0052C7.66157 19.4788 7.17578 18.7161 7.17578 17.8658C7.17578 17.0155 7.6617 16.2527 8.4513 15.7263L8.45295 15.7252L8.45295 15.7252C9.32285 15.1489 10.4323 14.8821 11.5036 14.8821ZM9.2132 16.8709C8.71094 17.206 8.55078 17.5797 8.55078 17.8658C8.55078 18.1521 8.71112 18.526 9.21401 18.8613L9.21484 18.8619C9.81154 19.2609 10.6378 19.4815 11.5002 19.4815C12.3625 19.4815 13.1888 19.2609 13.7855 18.8619L13.7863 18.8613C14.2892 18.526 14.4495 18.1521 14.4495 17.8658C14.4495 17.5795 14.2892 17.2056 13.7863 16.8704C13.195 16.4762 12.3689 16.2571 11.5036 16.2571C10.6389 16.2571 9.80991 16.4759 9.2132 16.8709Z" fill="#1F4B43"/>
</svg>
