<svg width="69" height="26" viewBox="0 0 69 26" fill="none" xmlns="http://www.w3.org/2000/svg">
<rect x="0.461548" y="0.860107" width="68.3088" height="25.08" rx="12.54" fill="#1F4B43"/>
<path d="M13.7872 9.83604V16.8601H12.5763V9.83604H13.7872ZM16.6528 12.9091V13.8691H13.4784V12.9091H16.6528ZM17.0532 9.83604V10.8009H13.4784V9.83604H17.0532ZM23.6189 13.1551V13.541C23.6189 14.0717 23.5498 14.5477 23.4115 14.969C23.2732 15.3903 23.0754 15.7489 22.8181 16.0448C22.564 16.3407 22.2585 16.5674 21.9015 16.725C21.5445 16.8794 21.1489 16.9566 20.7147 16.9566C20.2838 16.9566 19.8898 16.8794 19.5328 16.725C19.179 16.5674 18.8719 16.3407 18.6114 16.0448C18.3509 15.7489 18.1483 15.3903 18.0035 14.969C17.862 14.5477 17.7913 14.0717 17.7913 13.541V13.1551C17.7913 12.6244 17.862 12.1501 18.0035 11.732C18.145 11.3106 18.3444 10.952 18.6017 10.6562C18.8622 10.3571 19.1694 10.1303 19.5232 9.97595C19.8802 9.81836 20.2741 9.73956 20.7051 9.73956C21.1393 9.73956 21.5349 9.81836 21.8919 9.97595C22.2488 10.1303 22.556 10.3571 22.8133 10.6562C23.0706 10.952 23.2684 11.3106 23.4067 11.732C23.5482 12.1501 23.6189 12.6244 23.6189 13.1551ZM22.408 13.541V13.1455C22.408 12.7531 22.3695 12.4074 22.2923 12.1083C22.2183 11.8059 22.1073 11.5535 21.9594 11.3508C21.8147 11.145 21.6362 10.9906 21.4239 10.8877C21.2116 10.7816 20.972 10.7285 20.7051 10.7285C20.4382 10.7285 20.2002 10.7816 19.9911 10.8877C19.7821 10.9906 19.6036 11.145 19.4556 11.3508C19.3109 11.5535 19.1999 11.8059 19.1228 12.1083C19.0456 12.4074 19.007 12.7531 19.007 13.1455V13.541C19.007 13.9334 19.0456 14.2808 19.1228 14.5831C19.1999 14.8854 19.3125 15.1411 19.4604 15.3501C19.6116 15.556 19.7917 15.7119 20.0008 15.8181C20.2098 15.921 20.4478 15.9725 20.7147 15.9725C20.9849 15.9725 21.2245 15.921 21.4336 15.8181C21.6426 15.7119 21.8195 15.556 21.9642 15.3501C22.1089 15.1411 22.2183 14.8854 22.2923 14.5831C22.3695 14.2808 22.408 13.9334 22.408 13.541ZM24.8298 9.83604H27.3143C27.8482 9.83604 28.3032 9.91645 28.6795 10.0773C29.0558 10.2381 29.3437 10.4761 29.5431 10.7912C29.7457 11.1032 29.847 11.4891 29.847 11.9491C29.847 12.2996 29.7827 12.6084 29.654 12.8753C29.5254 13.1422 29.3437 13.3674 29.1089 13.5507C28.8741 13.7308 28.5943 13.8707 28.2695 13.9704L27.9028 14.1489H25.6692L25.6596 13.1889H27.3336C27.623 13.1889 27.8642 13.1374 28.0572 13.0345C28.2502 12.9316 28.3949 12.7917 28.4914 12.6148C28.5911 12.4347 28.6409 12.2321 28.6409 12.0069C28.6409 11.7625 28.5927 11.5503 28.4962 11.3701C28.4029 11.1868 28.2582 11.0469 28.062 10.9504C27.8658 10.8507 27.6166 10.8009 27.3143 10.8009H26.0407V16.8601H24.8298V9.83604ZM28.8387 16.8601L27.1888 13.7051L28.4576 13.7002L30.1316 16.7974V16.8601H28.8387ZM33.5134 9.83604H35.9979C36.5318 9.83604 36.9868 9.91645 37.3631 10.0773C37.7394 10.2381 38.0273 10.4761 38.2267 10.7912C38.4293 11.1032 38.5306 11.4891 38.5306 11.9491C38.5306 12.2996 38.4663 12.6084 38.3376 12.8753C38.209 13.1422 38.0273 13.3674 37.7925 13.5507C37.5577 13.7308 37.2779 13.8707 36.9531 13.9704L36.5864 14.1489H34.3528L34.3432 13.1889H36.0172C36.3066 13.1889 36.5478 13.1374 36.7408 13.0345C36.9338 12.9316 37.0785 12.7917 37.175 12.6148C37.2747 12.4347 37.3245 12.2321 37.3245 12.0069C37.3245 11.7625 37.2763 11.5503 37.1798 11.3701C37.0865 11.1868 36.9418 11.0469 36.7456 10.9504C36.5494 10.8507 36.3002 10.8009 35.9979 10.8009H34.7243V16.8601H33.5134V9.83604ZM37.5223 16.8601L35.8724 13.7051L37.1412 13.7002L38.8152 16.7974V16.8601H37.5223ZM44.3341 15.9001V16.8601H40.605V15.9001H44.3341ZM40.9475 9.83604V16.8601H39.7366V9.83604H40.9475ZM43.8469 12.7692V13.7147H40.605V12.7692H43.8469ZM44.31 9.83604V10.8009H40.605V9.83604H44.31ZM50.8951 9.83604V16.8601H49.6842L46.534 11.8284V16.8601H45.3231V9.83604H46.534L49.6938 14.8774V9.83604H50.8951ZM55.0825 9.83604V16.8601H53.8813V9.83604H55.0825ZM57.2871 9.83604V10.8009H51.6959V9.83604H57.2871Z" fill="white"/>
</svg>
