<svg width="24" height="22" viewBox="0 0 24 22" fill="none" xmlns="http://www.w3.org/2000/svg">
<path d="M19.4285 16.48C19.3822 16.2147 19.4345 15.9433 19.5757 15.7165C19.7169 15.4897 19.9373 15.323 20.1958 15.2475L22.2495 14.6604C22.475 14.597 22.6733 14.464 22.816 14.2805C22.9587 14.097 23.0384 13.8724 23.0437 13.639L23.1539 9.22497C23.1601 8.9924 23.0921 8.76265 22.9596 8.56848C22.8271 8.37431 22.6368 8.22562 22.4159 8.14361L20.4081 7.3859C20.152 7.29049 19.9384 7.10592 19.8078 6.86702C19.6771 6.62812 19.6383 6.35142 19.6987 6.08913L20.1827 4.01952C20.2343 3.79437 20.2131 3.55766 20.122 3.34285C20.0309 3.12804 19.8745 2.94599 19.675 2.82244L15.873 0.45538C15.6723 0.315709 15.4321 0.244316 15.1891 0.252106C14.9461 0.259896 14.7136 0.346441 14.5272 0.498521L12.9311 1.87578C12.7224 2.04575 12.457 2.13305 12.185 2.12121C11.9129 2.10936 11.653 1.99919 11.4544 1.81148L9.84083 0.314575C9.67111 0.173127 9.46379 0.0840142 9.245 0.058461C9.0262 0.0329079 8.80571 0.0720578 8.61131 0.170979L4.69903 2.218C4.49057 2.32226 4.32172 2.48978 4.21664 2.69661C4.11156 2.90344 4.07562 3.13899 4.11396 3.36959L4.48403 5.46563C4.53033 5.73089 4.478 6.00226 4.3368 6.22906C4.1956 6.45586 3.97518 6.62258 3.71672 6.6981L1.67252 7.29106C1.44868 7.35843 1.25317 7.49463 1.11395 7.6802C0.974726 7.86578 0.898915 8.09122 0.897357 8.3243L0.787074 12.7384C0.780895 12.9709 0.848914 13.2007 0.981434 13.3949C1.11395 13.589 1.30421 13.7377 1.52509 13.8197L3.53292 14.5774C3.78903 14.6729 4.00258 14.8574 4.13327 15.0963C4.26396 15.3352 4.30276 15.6119 4.24234 15.8742L3.75837 17.9438C3.70419 18.1783 3.72913 18.4251 3.82939 18.6466C3.92964 18.8681 4.0997 19.0521 4.31359 19.1705L8.11559 21.5375C8.31454 21.6621 8.54692 21.7221 8.77989 21.7091C9.01285 21.696 9.23462 21.6106 9.41384 21.4648L11.0574 20.1172C11.2661 19.9472 11.5315 19.8599 11.8036 19.8717C12.0756 19.8836 12.3355 19.9937 12.5341 20.1814L14.1002 21.6488C14.2713 21.8108 14.4886 21.9159 14.7214 21.9491C14.9541 21.9823 15.1903 21.942 15.3963 21.8338L19.3085 19.7868C19.5156 19.679 19.682 19.5084 19.7837 19.2994C19.8854 19.0904 19.9172 18.8537 19.8746 18.6233L19.4285 16.48ZM17.2333 16.8494L17.4705 18.1631L14.9634 19.4784L13.9813 18.556C13.3823 17.9924 12.5991 17.6633 11.7803 17.6311C10.9615 17.599 10.1641 17.8662 9.53952 18.3818L8.52728 19.2027L6.094 17.6878L6.4145 16.4103C6.60158 15.6223 6.48939 14.7889 6.0992 14.0683C5.70902 13.3477 5.06802 12.7901 4.29787 12.5014L3.03677 12.0272L3.08578 9.19445L4.36935 8.82754C5.15668 8.60512 5.8291 8.10124 6.25806 7.41224C6.68701 6.72325 6.84241 5.89747 6.69453 5.0928L6.4573 3.77908L8.95278 2.48243L9.93486 3.4048C10.5339 3.96846 11.3171 4.29758 12.1359 4.3297C12.9547 4.36181 13.7521 4.09468 14.3767 3.57901L15.3947 2.74882L17.828 4.26373L17.5265 5.553C17.3394 6.34106 17.4516 7.17447 17.8418 7.89505C18.232 8.61563 18.873 9.17322 19.6432 9.46196L20.9043 9.93616L20.8304 12.7664L19.5469 13.1333C18.7655 13.3578 18.0987 13.8598 17.6724 14.5445C17.2461 15.2292 17.0899 16.0491 17.2333 16.8494ZM14.2862 7.24101C13.5342 6.77286 12.6628 6.53425 11.782 6.55537C10.9013 6.57648 10.0509 6.85638 9.33823 7.35966C8.62559 7.86293 8.08278 8.56699 7.77844 9.38279C7.4741 10.1986 7.4219 11.0895 7.62844 11.9428C7.83497 12.7962 8.29097 13.5737 8.93877 14.1769C9.58657 14.7802 10.3971 15.1822 11.2678 15.332C12.1385 15.4819 13.0303 15.3729 13.8304 15.0188C14.6306 14.6647 15.3031 14.0815 15.763 13.3428C16.3797 12.3523 16.5705 11.153 16.2936 10.0087C16.0166 8.86435 15.2945 7.8688 14.2862 7.24101ZM10.7984 12.8431C10.4224 12.609 10.1231 12.2707 9.93821 11.8709C9.75334 11.4711 9.69125 11.0277 9.75981 10.5969C9.82836 10.1661 10.0245 9.76723 10.3233 9.45066C10.6222 9.13409 11.0104 8.91408 11.4389 8.81844C11.8673 8.72281 12.3168 8.75584 12.7304 8.91337C13.144 9.0709 13.5032 9.34585 13.7626 9.70344C14.0219 10.061 14.1698 10.4852 14.1875 10.9224C14.2052 11.3595 14.0919 11.7899 13.862 12.1593C13.5537 12.6545 13.0577 13.0048 12.4831 13.1331C11.9086 13.2613 11.3026 13.157 10.7984 12.8431Z" fill="#1F4B43"/>
</svg>
