<svg width="22" height="22" viewBox="0 0 22 22" fill="none" xmlns="http://www.w3.org/2000/svg">
<path fill-rule="evenodd" clip-rule="evenodd" d="M13.0346 2.03462C13.6674 1.40188 14.5606 1.14575 15.5833 1.14575H17.4166C18.4392 1.14575 19.3325 1.40188 19.9652 2.03462C20.598 2.66735 20.8541 3.56061 20.8541 4.58325V6.41658C20.8541 7.43923 20.598 8.33248 19.9652 8.96522C19.3325 9.59796 18.4392 9.85408 17.4166 9.85408H15.5833C14.5606 9.85408 13.6674 9.59796 13.0346 8.96522C12.4019 8.33248 12.1458 7.43923 12.1458 6.41658V4.58325C12.1458 3.56061 12.4019 2.66735 13.0346 2.03462ZM14.0069 3.00689C13.723 3.29082 13.5208 3.77256 13.5208 4.58325V6.41658C13.5208 7.22728 13.723 7.70902 14.0069 7.99295C14.2908 8.27688 14.7726 8.47908 15.5833 8.47908H17.4166C18.2273 8.47908 18.709 8.27688 18.9929 7.99295C19.2769 7.70902 19.4791 7.22728 19.4791 6.41658V4.58325C19.4791 3.77256 19.2769 3.29082 18.9929 3.00689C18.709 2.72296 18.2273 2.52075 17.4166 2.52075H15.5833C14.7726 2.52075 14.2908 2.72296 14.0069 3.00689Z" fill="#1F4B43"/>
<path fill-rule="evenodd" clip-rule="evenodd" d="M2.03462 13.0346C2.66735 12.4019 3.56061 12.1458 4.58325 12.1458H6.41658C7.43923 12.1458 8.33248 12.4019 8.96522 13.0346C9.59796 13.6674 9.85408 14.5606 9.85408 15.5833V17.4166C9.85408 18.4392 9.59796 19.3325 8.96522 19.9652C8.33248 20.598 7.43923 20.8541 6.41658 20.8541H4.58325C3.56061 20.8541 2.66735 20.598 2.03462 19.9652C1.40188 19.3325 1.14575 18.4392 1.14575 17.4166V15.5833C1.14575 14.5606 1.40188 13.6674 2.03462 13.0346ZM3.00689 14.0069C2.72296 14.2908 2.52075 14.7726 2.52075 15.5833V17.4166C2.52075 18.2273 2.72296 18.709 3.00689 18.9929C3.29082 19.2769 3.77256 19.4791 4.58325 19.4791H6.41658C7.22728 19.4791 7.70902 19.2769 7.99295 18.9929C8.27688 18.709 8.47908 18.2273 8.47908 17.4166V15.5833C8.47908 14.7726 8.27688 14.2908 7.99295 14.0069C7.70902 13.723 7.22728 13.5208 6.41658 13.5208H4.58325C3.77256 13.5208 3.29082 13.723 3.00689 14.0069Z" fill="#1F4B43"/>
<path fill-rule="evenodd" clip-rule="evenodd" d="M5.49992 2.52075C3.85457 2.52075 2.52075 3.85457 2.52075 5.49992C2.52075 7.14527 3.85457 8.47908 5.49992 8.47908C7.14527 8.47908 8.47908 7.14527 8.47908 5.49992C8.47908 3.85457 7.14527 2.52075 5.49992 2.52075ZM1.14575 5.49992C1.14575 3.09518 3.09518 1.14575 5.49992 1.14575C7.90466 1.14575 9.85408 3.09518 9.85408 5.49992C9.85408 7.90466 7.90466 9.85408 5.49992 9.85408C3.09518 9.85408 1.14575 7.90466 1.14575 5.49992Z" fill="#1F4B43"/>
<path fill-rule="evenodd" clip-rule="evenodd" d="M16.4999 13.5208C14.8546 13.5208 13.5208 14.8546 13.5208 16.4999C13.5208 18.1453 14.8546 19.4791 16.4999 19.4791C18.1453 19.4791 19.4791 18.1453 19.4791 16.4999C19.4791 14.8546 18.1453 13.5208 16.4999 13.5208ZM12.1458 16.4999C12.1458 14.0952 14.0952 12.1458 16.4999 12.1458C18.9047 12.1458 20.8541 14.0952 20.8541 16.4999C20.8541 18.9047 18.9047 20.8541 16.4999 20.8541C14.0952 20.8541 12.1458 18.9047 12.1458 16.4999Z" fill="#1F4B43"/>
</svg>
