<svg width="21" height="20" viewBox="0 0 21 20" fill="none" xmlns="http://www.w3.org/2000/svg">
<path fill-rule="evenodd" clip-rule="evenodd" d="M12.5346 1.03462C13.1674 0.401878 14.0606 0.145752 15.0833 0.145752H16.9166C17.9392 0.145752 18.8325 0.401878 19.4652 1.03462C20.098 1.66735 20.3541 2.56061 20.3541 3.58325V5.41658C20.3541 6.43923 20.098 7.33248 19.4652 7.96522C18.8325 8.59796 17.9392 8.85408 16.9166 8.85408H15.0833C14.0606 8.85408 13.1674 8.59796 12.5346 7.96522C11.9019 7.33248 11.6458 6.43923 11.6458 5.41658V3.58325C11.6458 2.56061 11.9019 1.66735 12.5346 1.03462ZM13.5069 2.00689C13.223 2.29082 13.0208 2.77256 13.0208 3.58325V5.41658C13.0208 6.22728 13.223 6.70902 13.5069 6.99295C13.7908 7.27688 14.2726 7.47908 15.0833 7.47908H16.9166C17.7273 7.47908 18.209 7.27688 18.4929 6.99295C18.7769 6.70902 18.9791 6.22728 18.9791 5.41658V3.58325C18.9791 2.77256 18.7769 2.29082 18.4929 2.00689C18.209 1.72296 17.7273 1.52075 16.9166 1.52075H15.0833C14.2726 1.52075 13.7908 1.72296 13.5069 2.00689Z" fill="white"/>
<path fill-rule="evenodd" clip-rule="evenodd" d="M1.53462 12.0346C2.16735 11.4019 3.06061 11.1458 4.08325 11.1458H5.91658C6.93923 11.1458 7.83248 11.4019 8.46522 12.0346C9.09796 12.6674 9.35408 13.5606 9.35408 14.5833V16.4166C9.35408 17.4392 9.09796 18.3325 8.46522 18.9652C7.83248 19.598 6.93923 19.8541 5.91658 19.8541H4.08325C3.06061 19.8541 2.16735 19.598 1.53462 18.9652C0.901878 18.3325 0.645752 17.4392 0.645752 16.4166V14.5833C0.645752 13.5606 0.901878 12.6674 1.53462 12.0346ZM2.50689 13.0069C2.22296 13.2908 2.02075 13.7726 2.02075 14.5833V16.4166C2.02075 17.2273 2.22296 17.709 2.50689 17.9929C2.79082 18.2769 3.27256 18.4791 4.08325 18.4791H5.91658C6.72728 18.4791 7.20902 18.2769 7.49295 17.9929C7.77688 17.709 7.97908 17.2273 7.97908 16.4166V14.5833C7.97908 13.7726 7.77688 13.2908 7.49295 13.0069C7.20902 12.723 6.72728 12.5208 5.91658 12.5208H4.08325C3.27256 12.5208 2.79082 12.723 2.50689 13.0069Z" fill="white"/>
<path fill-rule="evenodd" clip-rule="evenodd" d="M4.99992 1.52075C3.35457 1.52075 2.02075 2.85457 2.02075 4.49992C2.02075 6.14527 3.35457 7.47908 4.99992 7.47908C6.64527 7.47908 7.97908 6.14527 7.97908 4.49992C7.97908 2.85457 6.64527 1.52075 4.99992 1.52075ZM0.645752 4.49992C0.645752 2.09518 2.59518 0.145752 4.99992 0.145752C7.40466 0.145752 9.35408 2.09518 9.35408 4.49992C9.35408 6.90466 7.40466 8.85408 4.99992 8.85408C2.59518 8.85408 0.645752 6.90466 0.645752 4.49992Z" fill="white"/>
<path fill-rule="evenodd" clip-rule="evenodd" d="M15.9999 12.5208C14.3546 12.5208 13.0208 13.8546 13.0208 15.4999C13.0208 17.1453 14.3546 18.4791 15.9999 18.4791C17.6453 18.4791 18.9791 17.1453 18.9791 15.4999C18.9791 13.8546 17.6453 12.5208 15.9999 12.5208ZM11.6458 15.4999C11.6458 13.0952 13.5952 11.1458 15.9999 11.1458C18.4047 11.1458 20.3541 13.0952 20.3541 15.4999C20.3541 17.9047 18.4047 19.8541 15.9999 19.8541C13.5952 19.8541 11.6458 17.9047 11.6458 15.4999Z" fill="white"/>
</svg>
