<svg width="23" height="22" viewBox="0 0 23 22" fill="none" xmlns="http://www.w3.org/2000/svg">
<path fill-rule="evenodd" clip-rule="evenodd" d="M9.89575 17.875C9.89575 17.4953 10.2036 17.1875 10.5833 17.1875H19.7499C20.1296 17.1875 20.4374 17.4953 20.4374 17.875C20.4374 18.2547 20.1296 18.5625 19.7499 18.5625H10.5833C10.2036 18.5625 9.89575 18.2547 9.89575 17.875Z" fill="#1F4B43"/>
<path fill-rule="evenodd" clip-rule="evenodd" d="M9.89575 11.4584C9.89575 11.0787 10.2036 10.7709 10.5833 10.7709H19.7499C20.1296 10.7709 20.4374 11.0787 20.4374 11.4584C20.4374 11.8381 20.1296 12.1459 19.7499 12.1459H10.5833C10.2036 12.1459 9.89575 11.8381 9.89575 11.4584Z" fill="#1F4B43"/>
<path fill-rule="evenodd" clip-rule="evenodd" d="M9.89575 5.04175C9.89575 4.66205 10.2036 4.35425 10.5833 4.35425H19.7499C20.1296 4.35425 20.4374 4.66205 20.4374 5.04175C20.4374 5.42144 20.1296 5.72925 19.7499 5.72925H10.5833C10.2036 5.72925 9.89575 5.42144 9.89575 5.04175Z" fill="#1F4B43"/>
<path fill-rule="evenodd" clip-rule="evenodd" d="M7.4028 2.72224C7.67129 2.99072 7.67129 3.42602 7.4028 3.69451L4.6528 6.44451C4.38432 6.713 3.94902 6.713 3.68053 6.44451L2.76386 5.52784C2.49538 5.25936 2.49538 4.82406 2.76386 4.55557C3.03235 4.28709 3.46765 4.28709 3.73614 4.55557L4.16667 4.9861L6.43053 2.72224C6.69902 2.45375 7.13432 2.45375 7.4028 2.72224Z" fill="#1F4B43"/>
<path fill-rule="evenodd" clip-rule="evenodd" d="M7.4028 9.13886C7.67129 9.40735 7.67129 9.84265 7.4028 10.1111L4.6528 12.8611C4.38432 13.1296 3.94902 13.1296 3.68053 12.8611L2.76386 11.9445C2.49538 11.676 2.49538 11.2407 2.76386 10.9722C3.03235 10.7037 3.46765 10.7037 3.73614 10.9722L4.16667 11.4027L6.43053 9.13886C6.69902 8.87038 7.13432 8.87038 7.4028 9.13886Z" fill="#1F4B43"/>
<path fill-rule="evenodd" clip-rule="evenodd" d="M7.4028 15.5556C7.67129 15.8241 7.67129 16.2594 7.4028 16.5279L4.6528 19.2779C4.38432 19.5464 3.94902 19.5464 3.68053 19.2779L2.76386 18.3612C2.49538 18.0927 2.49538 17.6574 2.76386 17.3889C3.03235 17.1205 3.46765 17.1205 3.73614 17.3889L4.16667 17.8195L6.43053 15.5556C6.69902 15.2871 7.13432 15.2871 7.4028 15.5556Z" fill="#1F4B43"/>
</svg>
