<svg width="46" height="46" viewBox="0 0 46 46" fill="none" xmlns="http://www.w3.org/2000/svg">
<rect width="46" height="46" rx="23" fill="#F0C274"/>
<path fill-rule="evenodd" clip-rule="evenodd" d="M23 14.521C20.8484 14.521 19.1041 16.2652 19.1041 18.4168C19.1041 20.5684 20.8484 22.3127 23 22.3127C25.1516 22.3127 26.8958 20.5684 26.8958 18.4168C26.8958 16.2652 25.1516 14.521 23 14.521ZM17.7291 18.4168C17.7291 15.5058 20.089 13.146 23 13.146C25.911 13.146 28.2708 15.5058 28.2708 18.4168C28.2708 21.3278 25.911 23.6877 23 23.6877C20.089 23.6877 17.7291 21.3278 17.7291 18.4168Z" fill="white"/>
<path fill-rule="evenodd" clip-rule="evenodd" d="M14.4384 32.1667C14.4384 28.1142 18.414 25.0625 23 25.0625C27.586 25.0625 31.5617 28.1142 31.5617 32.1667C31.5617 32.5464 31.2539 32.8542 30.8742 32.8542C30.4945 32.8542 30.1867 32.5464 30.1867 32.1667C30.1867 29.1241 27.104 26.4375 23 26.4375C18.896 26.4375 15.8134 29.1241 15.8134 32.1667C15.8134 32.5464 15.5056 32.8542 15.1259 32.8542C14.7462 32.8542 14.4384 32.5464 14.4384 32.1667Z" fill="white"/>
</svg>
