<svg width="68" height="26" viewBox="0 0 68 26" fill="none" xmlns="http://www.w3.org/2000/svg">
<rect x="0.199951" y="0.859863" width="67.1536" height="25.08" rx="12.54" fill="#1F4B43"/>
<path d="M13.5257 9.8358V16.8599H12.3148V9.8358H13.5257ZM16.3913 12.9088V13.8688H13.2169V12.9088H16.3913ZM16.7917 9.8358V10.8006H13.2169V9.8358H16.7917ZM23.3575 13.1549V13.5408C23.3575 14.0715 23.2883 14.5475 23.15 14.9688C23.0117 15.3901 22.8139 15.7487 22.5566 16.0446C22.3026 16.3405 21.997 16.5672 21.64 16.7248C21.283 16.8792 20.8875 16.9563 20.4533 16.9563C20.0223 16.9563 19.6283 16.8792 19.2713 16.7248C18.9176 16.5672 18.6104 16.3405 18.3499 16.0446C18.0894 15.7487 17.8868 15.3901 17.7421 14.9688C17.6005 14.5475 17.5298 14.0715 17.5298 13.5408V13.1549C17.5298 12.6242 17.6005 12.1498 17.7421 11.7317C17.8836 11.3104 18.083 10.9518 18.3403 10.6559C18.6008 10.3568 18.9079 10.1301 19.2617 9.9757C19.6187 9.81811 20.0127 9.73932 20.4436 9.73932C20.8778 9.73932 21.2734 9.81811 21.6304 9.9757C21.9874 10.1301 22.2945 10.3568 22.5518 10.6559C22.8091 10.9518 23.0069 11.3104 23.1452 11.7317C23.2867 12.1498 23.3575 12.6242 23.3575 13.1549ZM22.1466 13.5408V13.1452C22.1466 12.7528 22.108 12.4071 22.0308 12.108C21.9568 11.8057 21.8459 11.5532 21.6979 11.3506C21.5532 11.1448 21.3747 10.9904 21.1624 10.8875C20.9502 10.7813 20.7106 10.7283 20.4436 10.7283C20.1767 10.7283 19.9387 10.7813 19.7296 10.8875C19.5206 10.9904 19.3421 11.1448 19.1942 11.3506C19.0494 11.5532 18.9385 11.8057 18.8613 12.108C18.7841 12.4071 18.7455 12.7528 18.7455 13.1452V13.5408C18.7455 13.9332 18.7841 14.2805 18.8613 14.5828C18.9385 14.8851 19.051 15.1408 19.199 15.3499C19.3501 15.5557 19.5302 15.7117 19.7393 15.8178C19.9483 15.9207 20.1863 15.9722 20.4533 15.9722C20.7234 15.9722 20.963 15.9207 21.1721 15.8178C21.3811 15.7117 21.558 15.5557 21.7027 15.3499C21.8475 15.1408 21.9568 14.8851 22.0308 14.5828C22.108 14.2805 22.1466 13.9332 22.1466 13.5408ZM24.5683 9.8358H27.0528C27.5867 9.8358 28.0418 9.9162 28.4181 10.077C28.7943 10.2378 29.0822 10.4758 29.2816 10.791C29.4842 11.103 29.5855 11.4889 29.5855 11.9488C29.5855 12.2994 29.5212 12.6081 29.3925 12.8751C29.2639 13.142 29.0822 13.3671 28.8474 13.5504C28.6126 13.7306 28.3328 13.8705 28.008 13.9702L27.6414 14.1487H25.4077L25.3981 13.1886H27.0721C27.3616 13.1886 27.6028 13.1372 27.7957 13.0343C27.9887 12.9313 28.1334 12.7914 28.2299 12.6146C28.3296 12.4344 28.3795 12.2318 28.3795 12.0067C28.3795 11.7623 28.3312 11.55 28.2347 11.3699C28.1415 11.1866 27.9967 11.0467 27.8006 10.9502C27.6044 10.8505 27.3551 10.8006 27.0528 10.8006H25.7792V16.8599H24.5683V9.8358ZM28.5773 16.8599L26.9274 13.7048L28.1961 13.7L29.8701 16.7971V16.8599H28.5773ZM36.9473 15.0508C36.9473 14.9061 36.9248 14.7774 36.8797 14.6648C36.8379 14.5523 36.7623 14.4494 36.653 14.3561C36.5436 14.2628 36.3893 14.1728 36.1899 14.0859C35.9937 13.9959 35.7428 13.9042 35.4373 13.811C35.1028 13.708 34.7941 13.5939 34.511 13.4684C34.2312 13.3398 33.9868 13.1918 33.7778 13.0246C33.5687 12.8542 33.4063 12.6596 33.2905 12.4409C33.1747 12.219 33.1168 11.9633 33.1168 11.6738C33.1168 11.3876 33.1763 11.1271 33.2953 10.8923C33.4176 10.6575 33.5896 10.4549 33.8115 10.2845C34.0367 10.1108 34.302 9.97731 34.6075 9.88404C34.9131 9.78756 35.2508 9.73932 35.6206 9.73932C36.1416 9.73932 36.5903 9.8358 36.9666 10.0288C37.3461 10.2217 37.6371 10.4806 37.8398 10.8055C38.0456 11.1303 38.1485 11.4889 38.1485 11.8813H36.9473C36.9473 11.6497 36.8974 11.4455 36.7977 11.2686C36.7012 11.0885 36.5533 10.947 36.3539 10.8441C36.1577 10.7411 35.9085 10.6897 35.6061 10.6897C35.3199 10.6897 35.0819 10.7331 34.8922 10.8199C34.7024 10.9068 34.5609 11.0242 34.4676 11.1721C34.3744 11.3201 34.3277 11.4873 34.3277 11.6738C34.3277 11.8057 34.3583 11.9263 34.4194 12.0356C34.4805 12.1418 34.5738 12.2415 34.6992 12.3347C34.8246 12.4248 34.9822 12.51 35.172 12.5904C35.3617 12.6708 35.5852 12.748 35.8425 12.822C36.2317 12.9378 36.571 13.0664 36.8604 13.2079C37.1499 13.3462 37.3911 13.5038 37.5841 13.6807C37.777 13.8576 37.9218 14.0586 38.0183 14.2837C38.1147 14.5056 38.163 14.7581 38.163 15.0411C38.163 15.337 38.1035 15.604 37.9845 15.842C37.8655 16.0767 37.695 16.2777 37.4731 16.445C37.2544 16.609 36.9907 16.736 36.6819 16.8261C36.3764 16.9129 36.0355 16.9563 35.6592 16.9563C35.3215 16.9563 34.9886 16.9113 34.6606 16.8213C34.3358 16.7312 34.0399 16.5945 33.7729 16.4112C33.506 16.2247 33.2937 15.9931 33.1361 15.7165C32.9786 15.4367 32.8998 15.1103 32.8998 14.7372H34.1106C34.1106 14.9656 34.1492 15.1601 34.2264 15.3209C34.3068 15.4817 34.4178 15.6136 34.5593 15.7165C34.7008 15.8162 34.8648 15.8902 35.0514 15.9384C35.2411 15.9867 35.4437 16.0108 35.6592 16.0108C35.9422 16.0108 36.1786 15.9706 36.3684 15.8902C36.5613 15.8098 36.7061 15.6972 36.8025 15.5525C36.899 15.4078 36.9473 15.2405 36.9473 15.0508ZM41.9693 10.7717L39.8708 16.8599H38.602L41.2457 9.8358H42.0561L41.9693 10.7717ZM43.7253 16.8599L41.6219 10.7717L41.5303 9.8358H42.3456L44.9989 16.8599H43.7253ZM43.624 14.2548V15.2148H39.8032V14.2548H43.624ZM50.1849 15.8998V16.8599H46.6584V15.8998H50.1849ZM46.9961 9.8358V16.8599H45.7852V9.8358H46.9961ZM55.7183 15.8998V16.8599H51.9892V15.8998H55.7183ZM52.3317 9.8358V16.8599H51.1208V9.8358H52.3317ZM55.2311 12.7689V13.7145H51.9892V12.7689H55.2311ZM55.6942 9.8358V10.8006H51.9892V9.8358H55.6942Z" fill="white"/>
</svg>
