<svg width="28" height="25" viewBox="0 0 28 25" fill="none" xmlns="http://www.w3.org/2000/svg">
<path d="M23 19.1733H27V22.1733C27 22.7253 26.552 23.1733 26 23.1733H24C23.448 23.1733 23 22.7253 23 22.1733V19.1733Z" stroke="white" stroke-width="2"/>
<path d="M1 19.1733H5V22.1733C5 22.7253 4.552 23.1733 4 23.1733H2C1.448 23.1733 1 22.7253 1 22.1733V19.1733Z" stroke="white" stroke-width="2"/>
<path d="M5 9.17334H23C25.209 9.17334 27 10.9643 27 13.1733V18.1733C27 18.7253 26.552 19.1733 26 19.1733H2C1.448 19.1733 1 18.7253 1 18.1733V13.1733C1 10.9643 2.791 9.17334 5 9.17334Z" stroke="white" stroke-width="2"/>
<path d="M23 13.1733C23.552 13.1733 24 13.6213 24 14.1733C24 14.7253 23.552 15.1733 23 15.1733C22.448 15.1733 22 14.7253 22 14.1733C22 13.6213 22.448 13.1733 23 13.1733Z" fill="white"/>
<path d="M5 13.1733C5.552 13.1733 6 13.6213 6 14.1733C6 14.7253 5.552 15.1733 5 15.1733C4.448 15.1733 4 14.7253 4 14.1733C4 13.6213 4.448 13.1733 5 13.1733Z" fill="white"/>
<path d="M6.693 1.17334H21.307C21.724 1.17334 22.097 1.43234 22.243 1.82234L25 9.17334H3L5.757 1.82234C5.903 1.43234 6.276 1.17334 6.693 1.17334Z" stroke="white" stroke-width="2"/>
<path d="M0 6.17334H3V8.17334H0V6.17334Z" fill="white"/>
<path d="M25 6.17334H28V8.17334H25V6.17334Z" fill="white"/>
<path d="M8 14.1733H20" stroke="white" stroke-width="2"/>
</svg>
