<svg width="25" height="25" viewBox="0 0 25 25" fill="none" xmlns="http://www.w3.org/2000/svg">
<path d="M1.45312 6.38567H23.5484M4.21503 0.671387H20.7865C21.519 0.671387 22.2215 0.972406 22.7394 1.50822C23.2574 2.04404 23.5484 2.77077 23.5484 3.52853V20.6714C23.5484 21.4291 23.2574 22.1559 22.7394 22.6917C22.2215 23.2275 21.519 23.5285 20.7865 23.5285H4.21503C3.48253 23.5285 2.78003 23.2275 2.26207 22.6917C1.74411 22.1559 1.45313 21.4291 1.45312 20.6714V3.52853C1.45312 2.77077 1.74411 2.04404 2.26207 1.50822C2.78003 0.972406 3.48253 0.671387 4.21503 0.671387V0.671387Z" stroke="#888B97" stroke-width="1.2" stroke-linecap="round" stroke-linejoin="round"/>
<path d="M12.5013 13.5285C13.264 13.5285 13.8823 12.8889 13.8823 12.1C13.8823 11.311 13.264 10.6714 12.5013 10.6714C11.7386 10.6714 11.1204 11.311 11.1204 12.1C11.1204 12.8889 11.7386 13.5285 12.5013 13.5285Z" fill="#888B97"/>
<path d="M6.97739 13.5285C7.74007 13.5285 8.35834 12.8889 8.35834 12.1C8.35834 11.311 7.74007 10.6714 6.97739 10.6714C6.21471 10.6714 5.59644 11.311 5.59644 12.1C5.59644 12.8889 6.21471 13.5285 6.97739 13.5285Z" fill="#888B97"/>
<path d="M18.025 13.5285C18.7877 13.5285 19.4059 12.8889 19.4059 12.1C19.4059 11.311 18.7877 10.6714 18.025 10.6714C17.2623 10.6714 16.644 11.311 16.644 12.1C16.644 12.8889 17.2623 13.5285 18.025 13.5285Z" fill="#888B97"/>
<path d="M12.5013 19.2429C13.264 19.2429 13.8823 18.6033 13.8823 17.8143C13.8823 17.0253 13.264 16.3857 12.5013 16.3857C11.7386 16.3857 11.1204 17.0253 11.1204 17.8143C11.1204 18.6033 11.7386 19.2429 12.5013 19.2429Z" fill="#888B97"/>
<path d="M6.97739 19.2429C7.74007 19.2429 8.35834 18.6033 8.35834 17.8143C8.35834 17.0253 7.74007 16.3857 6.97739 16.3857C6.21471 16.3857 5.59644 17.0253 5.59644 17.8143C5.59644 18.6033 6.21471 19.2429 6.97739 19.2429Z" fill="#888B97"/>
<path d="M18.025 19.2429C18.7877 19.2429 19.4059 18.6033 19.4059 17.8143C19.4059 17.0253 18.7877 16.3857 18.025 16.3857C17.2623 16.3857 16.644 17.0253 16.644 17.8143C16.644 18.6033 17.2623 19.2429 18.025 19.2429Z" fill="#888B97"/>
</svg>
