<svg width="29" height="31" viewBox="0 0 29 31" fill="none" xmlns="http://www.w3.org/2000/svg">
<path d="M15.026 0.547852V4.57785L19.052 2.25285L20.052 3.98585L15.026 6.88685V13.8149L21.026 10.3509V4.54785H23.026V9.19585L26.517 7.18185L27.517 8.91385L24.026 10.9289L28.052 13.2529L27.052 14.9859L22.026 12.0829L16.026 15.5469L22.027 19.0119L27.052 16.1099L28.052 17.8419L24.026 20.1659L27.517 22.1819L26.517 23.9139L23.026 21.8989V26.5479H21.026V20.7439L15.026 17.2789V24.2079L20.052 27.1099L19.052 28.8419L15.026 26.5169V30.5479H13.026V26.5169L9 28.8419L8 27.1099L13.026 24.2079V17.2789L7.026 20.7429V26.5479H5.026V21.8979L1.536 23.9139L0.535999 22.1819L4.025 20.1659L0 17.8419L1 16.1099L6.025 19.0109L12.025 15.5469L6.026 12.0829L1 14.9859L0 13.2529L4.026 10.9289L0.535999 8.91385L1.536 7.18185L5.026 9.19585V4.54785H7.026V10.3509L13.026 13.8149V6.88685L8 3.98585L9 2.25285L13.026 4.57785V0.547852H15.026Z" fill="white"/>
</svg>
