<svg width="31" height="24" viewBox="0 0 31 24" fill="none" xmlns="http://www.w3.org/2000/svg">
<path d="M4.00337 10.1328L2.63843 10.8711L3.22442 12.5907L4.58936 11.8524L4.00337 10.1328Z" stroke="#888B97" stroke-width="1.07" stroke-miterlimit="10" stroke-linecap="round" stroke-linejoin="round"/>
<path d="M4.87524 10.1242L8.01791 8.43066" stroke="#888B97" stroke-width="1.07" stroke-miterlimit="10" stroke-linecap="round" stroke-linejoin="round"/>
<path d="M5.16602 10.9673L6.82942 10.0703" stroke="#888B97" stroke-width="1.07" stroke-miterlimit="10" stroke-linecap="round" stroke-linejoin="round"/>
<path d="M5.24872 13.7818L3.88379 14.52L4.46978 16.2396L5.83471 15.5014L5.24872 13.7818Z" stroke="#888B97" stroke-width="1.07" stroke-miterlimit="10" stroke-linecap="round" stroke-linejoin="round"/>
<path d="M6.12134 13.7818L9.25787 12.0806" stroke="#888B97" stroke-width="1.07" stroke-miterlimit="10" stroke-linecap="round" stroke-linejoin="round"/>
<path d="M6.40356 14.6167L8.0731 13.7197" stroke="#888B97" stroke-width="1.07" stroke-miterlimit="10" stroke-linecap="round" stroke-linejoin="round"/>
<path d="M9.55833 19.3109L5.77117 21.3601C5.40903 21.5534 4.9855 21.3446 4.83205 20.8884L1.05717 9.79948C0.903715 9.34325 1.06945 8.80969 1.43159 8.61636L7.41002 5.38403C7.77216 5.19071 8.19569 5.3995 8.34914 5.85573L9.51536 9.28139" stroke="#888B97" stroke-width="1.07" stroke-miterlimit="10" stroke-linecap="round" stroke-linejoin="round"/>
<path d="M26.4251 11.8531L27.79 12.5913L28.376 10.8717L27.0111 10.1335L26.4251 11.8531Z" stroke="#888B97" stroke-width="1.07" stroke-miterlimit="10" stroke-linecap="round" stroke-linejoin="round"/>
<path d="M26.1268 10.1242L22.9841 8.43066" stroke="#888B97" stroke-width="1.07" stroke-miterlimit="10" stroke-linecap="round" stroke-linejoin="round"/>
<path d="M25.8382 10.9668L24.1748 10.0698" stroke="#888B97" stroke-width="1.07" stroke-miterlimit="10" stroke-linecap="round" stroke-linejoin="round"/>
<path d="M25.1751 15.5049L26.54 16.2432L27.126 14.5236L25.7611 13.7853L25.1751 15.5049Z" stroke="#888B97" stroke-width="1.07" stroke-miterlimit="10" stroke-linecap="round" stroke-linejoin="round"/>
<path d="M24.8799 13.7813L21.7434 12.0801" stroke="#888B97" stroke-width="1.07" stroke-miterlimit="10" stroke-linecap="round" stroke-linejoin="round"/>
<path d="M24.5978 14.6167L22.9282 13.7197" stroke="#888B97" stroke-width="1.07" stroke-miterlimit="10" stroke-linecap="round" stroke-linejoin="round"/>
<path d="M21.4419 19.3109L25.2291 21.3601C25.5912 21.5534 26.0147 21.3446 26.1682 20.8884L29.9431 9.79948C30.0965 9.34325 29.9308 8.80969 29.5686 8.61636L23.5902 5.38403C23.2281 5.19071 22.8045 5.3995 22.6511 5.85573L21.4849 9.28139" stroke="#888B97" stroke-width="1.07" stroke-miterlimit="10" stroke-linecap="round" stroke-linejoin="round"/>
<path d="M18.1454 3.18799H20.4656C21.0057 3.18799 21.4415 3.73702 21.4415 4.41751V21.8705C21.4415 22.551 21.0057 23.1001 20.4656 23.1001H10.5404C10.0002 23.1001 9.56445 22.551 9.56445 21.8705V4.41751C9.56445 3.73702 10.0002 3.18799 10.5404 3.18799H12.8606" stroke="#888B97" stroke-width="1.07" stroke-miterlimit="10" stroke-linecap="round" stroke-linejoin="round"/>
<path d="M18.1456 4.37874L20.2755 4.42514C20.4105 4.42514 20.5149 4.56433 20.5149 4.73445L20.4474 21.623C20.4474 21.7931 20.3369 21.9246 20.2018 21.9246L10.7247 21.8627C10.5897 21.8627 10.4854 21.7235 10.4854 21.5534L10.5529 4.66485C10.5529 4.49473 10.6634 4.36328 10.7984 4.36328L12.8485 4.37874" stroke="#888B97" stroke-width="1.07" stroke-miterlimit="10" stroke-linecap="round" stroke-linejoin="round"/>
<path d="M16.7705 1.84245C16.7705 1.43261 16.5066 1.1001 16.1813 1.1001H14.8187C14.4933 1.1001 14.2294 1.43261 14.2294 1.84245C14.2294 2.25229 13.9655 2.58481 13.6402 2.58481H13.2596C13.0325 2.58481 12.8545 2.81679 12.8545 3.09518V4.44842C12.8545 4.73454 13.0386 4.95879 13.2596 4.95879H17.7342C17.9613 4.95879 18.1393 4.72681 18.1393 4.44842V3.09518C18.1393 2.80906 17.9552 2.58481 17.7342 2.58481H17.3537C17.0345 2.58481 16.7705 2.25229 16.7705 1.84245Z" stroke="#888B97" stroke-width="1.07" stroke-miterlimit="10" stroke-linecap="round" stroke-linejoin="round"/>
<path d="M13.6707 7.1626H12.1853V9.03394H13.6707V7.1626Z" stroke="#888B97" stroke-width="1.07" stroke-miterlimit="10" stroke-linecap="round" stroke-linejoin="round"/>
<path d="M14.481 7.58789H18.8144" stroke="#888B97" stroke-width="1.07" stroke-miterlimit="10" stroke-linecap="round" stroke-linejoin="round"/>
<path d="M14.481 8.50049H16.7766" stroke="#888B97" stroke-width="1.07" stroke-miterlimit="10" stroke-linecap="round" stroke-linejoin="round"/>
<path d="M13.6707 10.5649H12.1853V12.4363H13.6707V10.5649Z" stroke="#888B97" stroke-width="1.07" stroke-miterlimit="10" stroke-linecap="round" stroke-linejoin="round"/>
<path d="M14.481 10.9902H18.8144" stroke="#888B97" stroke-width="1.07" stroke-miterlimit="10" stroke-linecap="round" stroke-linejoin="round"/>
<path d="M14.481 11.9028H16.7766" stroke="#888B97" stroke-width="1.07" stroke-miterlimit="10" stroke-linecap="round" stroke-linejoin="round"/>
<path d="M13.6707 13.96H12.1853V15.8313H13.6707V13.96Z" stroke="#888B97" stroke-width="1.07" stroke-miterlimit="10" stroke-linecap="round" stroke-linejoin="round"/>
<path d="M14.481 14.3853H18.8144" stroke="#888B97" stroke-width="1.07" stroke-miterlimit="10" stroke-linecap="round" stroke-linejoin="round"/>
<path d="M14.481 15.3057H16.7766" stroke="#888B97" stroke-width="1.07" stroke-miterlimit="10" stroke-linecap="round" stroke-linejoin="round"/>
<path d="M16.9976 19.249H19.2932" stroke="#888B97" stroke-width="1.07" stroke-miterlimit="10" stroke-linecap="round" stroke-linejoin="round"/>
<path d="M16.9976 20.2466H19.2932" stroke="#888B97" stroke-width="1.07" stroke-miterlimit="10" stroke-linecap="round" stroke-linejoin="round"/>
</svg>
