<svg width="20" height="20" viewBox="0 0 20 20" fill="none" xmlns="http://www.w3.org/2000/svg">
<path d="M9.57534 0.956055C11.461 0.956055 13.3467 0.956055 15.2324 0.956055C15.9867 0.956055 16.6768 1.09654 17.0785 1.84232C17.2289 2.10039 17.3116 2.39228 17.3189 2.69088C17.3189 3.0369 17.3189 3.38198 17.3189 3.72801C17.3189 4.38045 17.3189 4.38045 17.9647 4.43985C18.8953 4.52471 19.5006 5.66554 19.0424 6.48204C19.0075 6.55269 18.9513 6.61062 18.8817 6.64769C18.8121 6.68475 18.7327 6.69909 18.6546 6.68869C18.5764 6.67828 18.5035 6.64366 18.4461 6.58968C18.3887 6.53571 18.3496 6.46509 18.3343 6.38776C18.3065 6.21735 18.297 6.04445 18.306 5.87202C18.3268 5.44115 18.1175 5.28275 17.7045 5.29501C17.4217 5.30255 17.3 5.4138 17.3189 5.69288C17.3274 5.81828 17.3189 5.94462 17.3189 6.07002C17.3189 9.22728 17.3189 12.3845 17.3189 15.5418C17.3189 16.3951 17.1379 16.6459 16.3025 16.8721C16.0498 16.94 15.9744 17.0692 15.9791 17.3021C15.9791 17.5849 15.9885 17.8678 15.9725 18.1506C15.9661 18.4044 15.8697 18.6476 15.7004 18.8368C15.5311 19.0259 15.3 19.1487 15.0485 19.183C14.6291 19.2517 14.2021 19.2596 13.7804 19.2066C13.0903 19.1208 12.7621 18.7512 12.7433 18.0422C12.7357 17.7754 12.7357 17.5076 12.7433 17.2408C12.7433 17.0041 12.6349 16.8967 12.401 16.8967C10.5154 16.8967 8.62967 16.8967 6.74399 16.8967C6.48377 16.8967 6.3744 17.0145 6.381 17.2738C6.3876 17.5331 6.3876 17.8084 6.381 18.0752C6.3546 18.755 6.02744 19.1227 5.36085 19.2066C4.93945 19.2616 4.5123 19.2553 4.09273 19.1878C3.84104 19.1569 3.60837 19.0381 3.43583 18.8523C3.2633 18.6664 3.16202 18.4256 3.14989 18.1723C3.1423 18.0782 3.1423 17.9836 3.14989 17.8895C3.1942 17.3341 3.20457 16.8721 2.43993 16.7411C1.91948 16.6468 1.80257 16.1264 1.80445 15.6097C1.81294 12.4521 1.80445 9.29265 1.80445 6.13791C1.80445 6.01251 1.79597 5.88617 1.80445 5.76077C1.82802 5.45906 1.74034 5.28275 1.39055 5.29595C1.0681 5.30726 0.829557 5.37798 0.824843 5.75888C0.82662 5.96264 0.816546 6.16632 0.794672 6.3689C0.785693 6.45815 0.743475 6.54076 0.676402 6.60032C0.609329 6.65989 0.522308 6.69204 0.432621 6.69041C0.384972 6.69601 0.336683 6.69194 0.290647 6.67843C0.244611 6.66492 0.201777 6.64225 0.164711 6.61179C0.127646 6.58133 0.0971128 6.5437 0.0749417 6.50115C0.0527707 6.4586 0.0394184 6.41202 0.0356852 6.36419C-0.0802842 5.45246 0.00740004 4.45305 1.37546 4.44456C1.71111 4.44456 1.812 4.29371 1.80068 3.98257C1.78654 3.55829 1.78937 3.13402 1.80068 2.71068C1.82614 1.76784 2.42296 1.11822 3.35731 1.00508C3.60765 0.975596 3.85951 0.960799 4.11158 0.960769C5.93189 0.957626 7.75315 0.956055 9.57534 0.956055ZM9.56214 4.37574C7.40964 4.37574 5.25619 4.37574 3.10369 4.37574C2.80198 4.37574 2.58984 4.40119 2.59455 4.79342C2.60964 6.14545 2.60398 7.49654 2.59455 8.84763C2.59455 9.11257 2.70298 9.25022 2.95849 9.30868C4.90828 9.7537 6.86751 10.1016 8.87198 10.1601C11.3083 10.2298 13.6937 9.88381 16.0574 9.33131C16.3968 9.25211 16.5288 9.10691 16.5231 8.759C16.509 7.48617 16.4986 6.21333 16.5278 4.9405C16.5382 4.46908 16.3619 4.36442 15.9254 4.36819C13.8049 4.38705 11.6835 4.37668 9.56214 4.37668V4.37574ZM9.56214 16.0358C11.7137 16.0358 13.8662 16.0358 16.0178 16.0358C16.4185 16.0358 16.5222 15.8473 16.5278 15.4824C16.5335 15.1175 16.3921 14.9751 16.0291 14.9893C15.5893 15.0102 15.1486 15.0071 14.7091 14.9799C14.333 14.9536 13.9815 14.7832 13.7279 14.5041C13.4744 14.225 13.3383 13.8588 13.3482 13.4819C13.358 13.105 13.513 12.7464 13.7808 12.4809C14.0486 12.2155 14.4085 12.0636 14.7855 12.0571C15.2409 12.0439 15.6963 12.0476 16.1517 12.0571C16.41 12.0571 16.5231 11.9449 16.5194 11.6875C16.5137 11.3103 16.4996 10.9332 16.525 10.5561C16.5524 10.1525 16.4449 10.03 16.0225 10.1525C14.0331 10.7324 11.9843 10.9275 9.92419 10.953C7.59255 10.9822 5.28071 10.7786 3.02637 10.1365C2.73127 10.0526 2.58041 10.0884 2.59738 10.441C2.61624 10.8493 2.60964 11.2585 2.59738 11.6667C2.59078 11.9496 2.71429 12.0637 2.99243 12.058C3.41671 12.0486 3.84099 12.0505 4.26527 12.058C5.08554 12.075 5.75684 12.718 5.77381 13.4987C5.79361 14.2605 5.12042 14.9553 4.31052 14.9902C3.88719 15.0091 3.46197 15.0063 3.03863 14.9902C2.71807 14.9817 2.58795 15.11 2.59078 15.4353C2.59078 15.9397 2.66338 16.0302 3.1942 16.0311C5.31685 16.038 7.43855 16.0415 9.55932 16.0415L9.56214 16.0358ZM9.56874 3.57998H11.4073C12.9451 3.57998 14.4838 3.57998 16.0215 3.57998C16.2148 3.57998 16.4364 3.63184 16.5128 3.34333C16.74 2.4646 16.2516 1.79613 15.3436 1.79518C11.4818 1.79141 7.62021 1.79141 3.75896 1.79518C2.93869 1.79518 2.62001 2.11763 2.60021 2.92659C2.58418 3.55452 2.60021 3.57527 3.2602 3.57527L9.56874 3.57998ZM3.60811 14.1558C3.82779 14.1558 4.04653 14.1558 4.2681 14.1558C4.66032 14.1558 4.88471 13.9607 4.91771 13.5665C4.94788 13.1941 4.71217 12.9066 4.30864 12.8764C3.96639 12.8481 3.62036 12.8632 3.27151 12.8632C2.59455 12.8632 2.59455 12.8632 2.59738 13.5298C2.59738 14.1436 2.61153 14.1558 3.23097 14.1596L3.60811 14.1558ZM15.4379 14.1511C16.5967 14.1568 16.5967 14.1568 16.5156 13.2215C16.5156 13.1904 16.5156 13.1592 16.5109 13.1272C16.5135 13.0917 16.5083 13.056 16.4958 13.0227C16.4832 12.9894 16.4636 12.9593 16.4382 12.9343C16.4128 12.9094 16.3823 12.8903 16.3488 12.8783C16.3152 12.8663 16.2795 12.8618 16.2441 12.8651C15.7434 12.8651 15.239 12.8396 14.7431 12.8868C14.3961 12.9188 14.1839 13.164 14.2009 13.5373C14.2198 13.9267 14.4281 14.1417 14.827 14.1492C15.0306 14.1558 15.2343 14.1502 15.4379 14.1502V14.1511ZM5.57299 17.6179C5.57299 16.8957 5.57299 16.8957 4.89886 16.8938C3.99844 16.8938 3.99844 16.8938 3.99561 17.5397C3.99561 18.3807 4.00599 18.3958 4.76592 18.3967C5.54659 18.3986 5.5711 18.3741 5.57299 17.6179ZM14.3207 16.8901C13.5438 16.8901 13.5438 16.8901 13.5438 17.5585C13.5438 18.375 13.5607 18.3939 14.3414 18.3929C15.1042 18.3929 15.1221 18.3741 15.1211 17.5915C15.1211 16.8901 15.1211 16.8901 14.3207 16.8901Z" fill="#2A323C" stroke="#2A323C" stroke-width="0.4"/>
</svg>
