<svg width="31" height="31" viewBox="0 0 31 31" fill="none" xmlns="http://www.w3.org/2000/svg">
<path d="M19.241 26.6332L24.364 28.4982C26.021 29.1012 27.838 28.3752 28.646 26.8642L29.592 27.2092C28.619 29.1772 26.339 30.1702 24.217 29.5042L24.017 29.4362L17.261 26.9782L17.252 26.9742L17.243 26.9702L1 21.0582L1.342 20.1182L19.241 26.6332Z" fill="white"/>
<path d="M19.241 26.6332L24.364 28.4982C26.021 29.1012 27.838 28.3752 28.646 26.8642L29.592 27.2092C28.619 29.1772 26.339 30.1702 24.217 29.5042L24.017 29.4362L17.261 26.9782L17.252 26.9742L17.243 26.9702L1 21.0582L1.342 20.1182L19.241 26.6332Z" stroke="white"/>
<path d="M17.864 25.733L22.269 19.781C22.691 19.212 22.652 18.434 22.201 17.91L22.19 17.897L22.179 17.886L22.09 17.796L22.079 17.785L22.068 17.774L19.399 15.371C19.234 15.221 19.189 14.984 19.281 14.787L19.326 14.71L22.1 10.546L23.298 11.345V11.356L23.302 11.388L23.334 11.634L23.335 11.647C23.348 11.726 23.361 11.801 23.376 11.867C23.608 12.873 24.142 13.663 25.018 14.196C25.834 14.691 26.909 14.941 28.234 14.99V15.99C25.271 15.883 23.432 14.806 22.661 12.916L22.305 12.044L21.782 12.828L20.63 14.557L20.39 14.916L20.711 15.207L22.737 17.031C23.652 17.855 23.825 19.216 23.169 20.238L23.069 20.382L18.618 26.294M13.602 24.208L16.825 19.992L17.115 19.613L16.75 19.307L13.749 16.774C13.266 16.366 12.995 15.788 12.965 15.19L14.083 15.61C14.13 15.705 14.189 15.796 14.26 15.878L14.273 15.893L14.287 15.906L14.366 15.983L14.38 15.998L14.394 16.009L18.124 19.158C18.309 19.313 18.353 19.575 18.239 19.781L18.19 19.854L14.315 24.759M10.675 9.69199L11.058 9.83499L11.274 9.48999L12.151 8.08899C12.312 7.83199 12.49 7.58599 12.685 7.35399C14.584 5.09199 17.697 4.44899 20.272 5.57799L21.105 5.94399L20.968 5.04599C20.849 4.26899 20.991 3.44899 21.427 2.72199C22.423 1.06499 24.573 0.528991 26.23 1.52399C27.887 2.51999 28.423 4.66899 27.428 6.32599C26.968 7.08999 26.265 7.61499 25.476 7.86299L25.315 7.91399L25.218 8.05199L24.753 8.70899L23.909 8.14699L24.668 7.01299C25.428 6.93899 26.146 6.51699 26.57 5.81099C27.281 4.62799 26.899 3.09299 25.715 2.38199C24.532 1.66999 22.996 2.05299 22.285 3.23699C21.863 3.93799 21.826 4.76299 22.111 5.46599L21.063 7.20999C18.739 5.38099 15.366 5.71699 13.451 7.99799C13.341 8.12899 13.237 8.26399 13.14 8.40399L13.133 8.41399L13.005 8.60999L12.999 8.61899L12.338 9.67699L12.013 10.194L12.586 10.41" fill="white"/>
<path d="M17.864 25.733L22.269 19.781C22.691 19.212 22.652 18.434 22.201 17.91L22.19 17.897L22.179 17.886L22.09 17.796L22.079 17.785L22.068 17.774L19.399 15.371C19.234 15.221 19.189 14.984 19.281 14.787L19.326 14.71L22.1 10.546L23.298 11.345V11.356L23.302 11.388L23.334 11.634L23.335 11.647C23.348 11.726 23.361 11.801 23.376 11.867C23.608 12.873 24.142 13.663 25.018 14.196C25.834 14.691 26.909 14.941 28.234 14.99V15.99C25.271 15.883 23.432 14.806 22.661 12.916L22.305 12.044L21.782 12.828L20.63 14.557L20.39 14.916L20.711 15.207L22.737 17.031C23.652 17.855 23.825 19.216 23.169 20.238L23.069 20.382L18.618 26.294M13.602 24.208L16.825 19.992L17.115 19.613L16.75 19.307L13.749 16.774C13.266 16.366 12.995 15.788 12.965 15.19L14.083 15.61C14.13 15.705 14.189 15.796 14.26 15.878L14.273 15.893L14.287 15.906L14.366 15.983L14.38 15.998L14.394 16.009L18.124 19.158C18.309 19.313 18.353 19.575 18.239 19.781L18.19 19.854L14.315 24.759M10.675 9.69199L11.058 9.83499L11.274 9.48999L12.151 8.08899C12.312 7.83199 12.49 7.58599 12.685 7.35399C14.584 5.09199 17.697 4.44899 20.272 5.57799L21.105 5.94399L20.968 5.04599C20.849 4.26899 20.991 3.44899 21.427 2.72199C22.423 1.06499 24.573 0.528991 26.23 1.52399C27.887 2.51999 28.423 4.66899 27.428 6.32599C26.968 7.08999 26.265 7.61499 25.476 7.86299L25.315 7.91399L25.218 8.05199L24.753 8.70899L23.909 8.14699L24.668 7.01299C25.428 6.93899 26.146 6.51699 26.57 5.81099C27.281 4.62799 26.899 3.09299 25.715 2.38199C24.532 1.66999 22.996 2.05299 22.285 3.23699C21.863 3.93799 21.826 4.76299 22.111 5.46599L21.063 7.20999C18.739 5.38099 15.366 5.71699 13.451 7.99799C13.341 8.12899 13.237 8.26399 13.14 8.40399L13.133 8.41399L13.005 8.60999L12.999 8.61899L12.338 9.67699L12.013 10.194L12.586 10.41" stroke="white"/>
<path d="M1.60791 7.06104L17.6139 13.065" stroke="white" stroke-width="2"/>
</svg>
