<svg width="26" height="27" viewBox="0 0 26 27" fill="none" xmlns="http://www.w3.org/2000/svg">
<g clip-path="url(#clip0_415_5008)">
<path d="M7.75916 14.0286C8.06469 13.3253 8.00043 13.0018 7.46491 12.5104C6.79906 11.92 6.32054 11.1477 6.08835 10.2888C6.01976 9.96389 5.82935 9.67755 5.55621 9.48857C4.55959 8.77849 4.33749 7.54881 4.97785 6.49496C5.08045 6.32476 5.14697 6.18387 5.0906 5.97761C4.56635 4.11112 5.6216 1.9403 7.87754 1.04988C9.18014 0.545074 10.5828 0.352075 11.9734 0.486326C12.8043 0.558461 13.492 0.88645 13.8178 1.74305C13.9702 2.10891 14.2373 2.41543 14.5788 2.61657C15.925 3.49684 16.173 4.23397 15.6871 5.77248C15.6318 5.94718 15.5676 6.08582 15.713 6.28644C16.5022 7.37523 16.2711 8.79426 15.1673 9.58662C14.984 9.71312 14.8526 9.90169 14.7976 10.1175C14.5199 11.1205 13.9467 12.0167 13.1527 12.6896C12.8145 12.9815 12.7896 13.9891 13.0907 14.3047C13.2429 14.4636 13.3455 14.3239 13.4086 14.2371C14.0366 13.3794 14.908 13.4943 15.7626 13.6735C18.1302 14.1852 19.81 15.5242 20.5327 17.8833C21.261 20.2626 21.3218 22.7299 21.341 25.1915C21.341 25.6987 21.0332 25.755 20.6308 25.755C16.8547 25.749 13.0783 25.749 9.30145 25.755C6.4649 25.755 3.62797 25.755 0.790671 25.755C0.0488379 25.755 -0.00640501 25.7009 0.00148683 24.9435C0.0206527 22.8347 0.133393 20.736 0.585483 18.67C1.24051 15.6719 3.51674 13.7107 6.44799 13.571C7.02071 13.5439 7.02071 13.5439 7.75916 14.0286ZM10.8528 24.9277C12.6758 24.9277 14.4977 24.9131 16.3196 24.9379C16.7705 24.9379 16.8957 24.8128 16.8833 24.3743C16.8539 23.1728 16.8731 21.9702 16.8742 20.7676C16.8742 20.5421 16.8573 20.3088 17.0997 20.1747C17.4176 20 17.6939 20.2299 17.6972 20.709C17.7074 21.9668 17.7108 23.2258 17.6972 24.4837C17.6972 24.8218 17.7897 24.9503 18.1426 24.9345C18.7987 24.9097 19.4571 24.921 20.1144 24.9345C20.3613 24.9345 20.5056 24.8793 20.4966 24.5964C20.4222 22.3252 20.3895 20.0462 19.6341 17.8653C19.0569 16.196 17.8303 15.194 16.1888 14.6417C15.8652 14.529 15.6848 14.5944 15.5123 14.9021C14.8269 16.0889 14.1166 17.2623 13.403 18.4322C13.2455 18.6832 13.164 18.9745 13.1685 19.2708C13.1797 20.6797 13.1763 22.0885 13.1685 23.4963C13.1685 24.1602 13.076 24.2526 12.4255 24.2549C11.2049 24.2549 9.98353 24.2549 8.76143 24.2549C8.04327 24.2549 7.97788 24.1929 7.97224 23.4929C7.97224 22.1404 7.9621 20.7879 7.97224 19.4353C7.98542 19.0614 7.88649 18.692 7.68814 18.3747C6.99704 17.2566 6.30932 16.1351 5.66557 14.9934C5.44009 14.5955 5.21461 14.5842 4.85046 14.7274C3.07705 15.4386 1.91695 16.6897 1.47162 18.5731C1.00713 20.5219 0.902284 22.5067 0.826748 24.4983C0.813219 24.8624 0.960909 24.9413 1.28786 24.9322C2.01954 24.9142 2.75348 24.9097 3.48517 24.9322C3.84819 24.9446 3.97221 24.8376 3.96544 24.4611C3.94402 23.2405 3.95868 22.0198 3.95643 20.798C3.95643 20.4813 3.97672 20.1386 4.37469 20.1274C4.77267 20.1161 4.80311 20.4655 4.80423 20.7811C4.80423 21.9646 4.82453 23.148 4.79521 24.3304C4.78394 24.788 4.90796 24.9435 5.38598 24.9368C7.20786 24.9063 9.03088 24.9277 10.8528 24.9277ZM10.5213 12.8462C10.5788 12.8462 10.7107 12.8383 10.8404 12.8169C12.6769 12.5216 13.5878 11.2784 14.0738 9.62269C14.1696 9.2947 14.2992 9.08168 14.6239 8.91374C15.5056 8.45613 15.5845 7.22307 14.7919 6.67868C14.6082 6.55244 14.5281 6.36759 14.4368 6.185C14.1065 5.53091 13.6844 4.92743 13.1831 4.39289C13.0591 4.26102 12.9182 4.01982 12.678 4.25088C12.1594 4.75357 11.5134 4.79189 10.8426 4.78287C9.73551 4.77048 8.62501 4.75808 7.53143 4.95645C6.82454 5.08269 6.25971 5.41631 6.15938 6.22783C6.12182 6.41205 6.02762 6.57993 5.88993 6.70798C5.18642 7.47893 5.35666 8.47304 6.28903 8.94868C6.62161 9.11775 6.72646 9.34768 6.79523 9.68356C7.17179 11.532 8.70055 12.8462 10.5213 12.8462ZM5.82341 4.92489C6.72533 4.10323 7.70505 4.0232 8.68364 3.98713C9.4886 3.95332 10.2958 3.96008 11.1019 3.95557C11.5089 3.95557 11.8798 3.87555 12.1786 3.56672C12.6792 3.04938 12.828 3.04036 13.3939 3.46528C13.9125 3.85526 14.2812 4.37486 14.651 4.89559C14.7389 5.01844 14.7637 5.21794 14.9689 5.23372C15.2226 4.42107 15.1301 4.0232 14.4142 3.53516C13.7761 3.10122 13.2406 2.61431 12.9486 1.88507C12.8246 1.57399 12.5371 1.43423 12.2395 1.3914C10.3635 1.14569 8.56864 1.34969 7.0162 2.54556C6.31383 3.0877 5.89331 3.82934 5.82341 4.92489ZM14.7694 14.4952C14.4221 14.3532 14.2914 14.5865 14.1358 14.7206C13.2203 15.5276 12.3097 16.3399 11.4041 17.1574C10.5687 17.9182 10.5754 17.9182 9.73776 17.1293C8.8798 16.3155 8.01509 15.5085 7.15713 14.6958C6.94292 14.4929 6.73322 14.3171 6.39951 14.4963C6.41746 14.5672 6.44199 14.6363 6.47279 14.7026C7.13571 15.8139 7.80877 16.9207 8.46266 18.0377C8.60359 18.2778 8.79074 18.3048 9.02637 18.3026C9.77722 18.3026 10.5382 18.2248 11.2812 18.3195C12.2248 18.4412 12.7468 18.0704 13.1606 17.2521C13.6307 16.3042 14.2226 15.4194 14.7694 14.4952ZM8.79412 21.2883C8.79412 21.8699 8.80652 22.4503 8.79412 23.0308C8.78623 23.3205 8.88544 23.4321 9.17857 23.4287C10.0805 23.4163 10.9824 23.4129 11.8776 23.4287C12.2293 23.4354 12.3285 23.2946 12.3285 22.9632C12.3143 21.8361 12.3143 20.7116 12.3285 19.5897C12.3285 19.2448 12.2158 19.1321 11.8776 19.1389C10.9971 19.1558 10.1154 19.1592 9.23494 19.1389C8.87642 19.131 8.78961 19.2753 8.80201 19.6033C8.81667 20.1634 8.80089 20.727 8.80089 21.2883H8.79412ZM12.412 14.8953C12.2344 14.5422 12.12 14.1607 12.0737 13.7682C12.0467 13.4233 11.9159 13.4301 11.6453 13.5112C10.9783 13.7156 10.2702 13.7466 9.58782 13.6014C8.83133 13.4537 8.8302 13.4515 8.63967 14.2078C8.5709 14.4817 8.38036 14.742 8.70393 15.0193C9.25749 15.4938 9.7806 16.0078 10.3048 16.5161C10.4841 16.6897 10.6216 16.7314 10.8235 16.5432C11.2902 16.1103 11.775 15.6967 12.2496 15.2718C12.3556 15.1884 12.4796 15.1117 12.4187 14.8953H12.412Z" fill="#888B97" stroke="#888B97" stroke-width="0.54"/>
<path d="M18.5496 7.35158V1.72278C18.5496 1.66643 18.5496 1.61007 18.5496 1.55372C18.5609 1.26292 18.6443 1.01496 18.9927 1.02736C19.3028 1.03863 19.4279 1.27419 19.3817 1.53681C19.2779 2.13982 19.6184 2.4385 20.0491 2.76424C21.8777 4.14157 23.6827 5.55046 25.4933 6.95258C25.7098 7.11939 26.0142 7.2693 25.8936 7.61758C25.7729 7.96586 25.4561 7.91288 25.1743 7.91288H20.7278C19.3952 7.91288 19.3952 7.91288 19.3952 9.27443C19.3952 10.5128 19.3952 11.7526 19.3952 12.9939C19.3952 13.2993 19.4155 13.6589 18.9983 13.6702C18.5361 13.6871 18.5474 13.3061 18.5474 12.9815C18.5474 11.1052 18.5481 9.2286 18.5496 7.35158ZM24.101 6.9368C22.6275 5.80293 21.1697 4.67356 19.6973 3.5487C19.4099 3.32328 19.3997 3.5487 19.3997 3.75609C19.3997 4.69498 19.4166 5.63499 19.3907 6.57387C19.3805 6.98189 19.5395 7.0822 19.9172 7.07656C21.1573 7.05966 22.3975 7.07656 23.6376 7.06755C23.7763 7.06642 23.9353 7.11939 24.101 6.9368Z" fill="#888B97" stroke="#888B97" stroke-width="0.54"/>
<path d="M10.5852 19.6313C10.8298 19.6313 11.0745 19.6201 11.318 19.6313C11.3703 19.6292 11.4225 19.6377 11.4715 19.6563C11.5205 19.6749 11.5652 19.7032 11.6029 19.7396C11.6406 19.7759 11.6706 19.8195 11.691 19.8677C11.7114 19.916 11.7218 19.9678 11.7216 20.0202C11.729 20.0723 11.7252 20.1253 11.7103 20.1758C11.6954 20.2262 11.6698 20.2729 11.6352 20.3126C11.6007 20.3522 11.558 20.384 11.51 20.4057C11.4621 20.4274 11.4101 20.4386 11.3574 20.4383C10.8332 20.4575 10.3067 20.4553 9.77907 20.4383C9.72643 20.4396 9.67414 20.4296 9.62568 20.4091C9.57721 20.3885 9.5337 20.3578 9.49806 20.3191C9.46241 20.2803 9.43544 20.2344 9.41897 20.1845C9.40249 20.1345 9.39688 20.0815 9.40251 20.0292C9.40016 19.9768 9.40866 19.9245 9.42747 19.8755C9.44628 19.8266 9.47499 19.782 9.51183 19.7447C9.54866 19.7073 9.59281 19.678 9.64151 19.6585C9.69021 19.639 9.74241 19.6297 9.79485 19.6313C10.0598 19.6212 10.3225 19.6325 10.5852 19.6313Z" fill="#888B97" stroke="#888B97" stroke-width="0.216"/>
<path d="M10.5844 21.6816C10.3217 21.6816 10.059 21.6917 9.79517 21.6816C9.74283 21.6832 9.69072 21.6739 9.64213 21.6544C9.59354 21.6349 9.54953 21.6055 9.51287 21.5681C9.47622 21.5307 9.44771 21.4862 9.42916 21.4372C9.41061 21.3882 9.40241 21.336 9.40509 21.2837C9.39944 21.2314 9.40504 21.1785 9.42153 21.1286C9.43801 21.0787 9.465 21.0328 9.50066 20.9942C9.53633 20.9555 9.57986 20.925 9.62832 20.9045C9.67678 20.8841 9.72906 20.8742 9.78164 20.8757C10.2882 20.8621 10.7948 20.8621 11.3014 20.8757C11.5641 20.8813 11.7287 21.0312 11.7197 21.3028C11.7106 21.5452 11.5505 21.6748 11.3149 21.6872C11.0793 21.6996 10.829 21.6827 10.5844 21.6816Z" fill="#888B97" stroke="#888B97" stroke-width="0.216"/>
<path d="M10.5432 22.9158C10.3008 22.9158 10.0572 22.9158 9.81372 22.9158C9.7617 22.9193 9.7095 22.9121 9.66041 22.8945C9.61132 22.877 9.5664 22.8494 9.52849 22.8136C9.49057 22.7778 9.46048 22.7346 9.44011 22.6866C9.41973 22.6386 9.40952 22.5869 9.41011 22.5348C9.40186 22.483 9.40506 22.4301 9.41949 22.3797C9.43392 22.3294 9.45922 22.2827 9.49362 22.2432C9.52802 22.2036 9.57067 22.1721 9.61857 22.1508C9.66648 22.1296 9.71847 22.119 9.77088 22.12C10.294 22.1054 10.8194 22.1065 11.3425 22.12C11.3948 22.1176 11.4471 22.1266 11.4956 22.1462C11.5442 22.1658 11.5879 22.1957 11.6239 22.2338C11.6599 22.2719 11.6872 22.3173 11.704 22.3669C11.7208 22.4165 11.7267 22.4692 11.7213 22.5213C11.7237 22.5733 11.7152 22.6253 11.6964 22.6739C11.6776 22.7225 11.6489 22.7667 11.6121 22.8035C11.5753 22.8404 11.5312 22.8693 11.4827 22.8882C11.4341 22.9071 11.3821 22.9158 11.3301 22.9135C11.0685 22.927 10.8058 22.9135 10.5409 22.9135L10.5432 22.9158Z" fill="#888B97" stroke="#888B97" stroke-width="0.216"/>
</g>
<defs>
<clipPath id="clip0_415_5008">
<rect width="25.92" height="25.92" fill="white" transform="translate(0 0.13999)"/>
</clipPath>
</defs>
</svg>
