<svg width="45" height="46" viewBox="0 0 45 46" fill="none" xmlns="http://www.w3.org/2000/svg">
<path d="M23.125 20.9229H29.125" stroke="white" stroke-width="2"/>
<path d="M10.125 16.9229H34.125" stroke="white" stroke-width="2"/>
<path d="M29.125 23.9229V13.9229C29.125 12.2659 27.782 10.9229 26.125 10.9229C24.468 10.9229 23.125 12.2659 23.125 13.9229M23.125 23.9229V13.9229C23.125 12.2659 21.782 10.9229 20.125 10.9229C18.468 10.9229 17.125 12.2659 17.125 13.9229" stroke="white" stroke-width="2"/>
<mask id="mask0_683_2124" style="mask-type:alpha" maskUnits="userSpaceOnUse" x="2" y="18" width="41" height="21">
<path d="M42.018 18.7983V38.9453H2V18.7983H42.018Z" fill="black"/>
</mask>
<g mask="url(#mask0_683_2124)">
<path d="M10.136 35.3999C9.41198 35.3999 8.68798 35.1499 8.13598 34.6499C7.58398 34.1499 6.85998 33.8999 6.13598 33.8999C5.41199 33.8999 4.68798 34.1499 4.13598 34.6499C3.58398 35.1499 2.85999 35.3999 2.13598 35.3999C1.41199 35.3999 0.687984 35.1499 0.135984 34.6499C-0.416016 34.1499 -1.14001 33.8999 -1.86402 33.8999C-2.58801 33.8999 -3.31202 34.1499 -3.86402 34.6499C-4.41602 35.1499 -5.14001 35.3999 -5.86402 35.3999C-6.58801 35.3999 -7.31202 35.1499 -7.86402 34.6499C-8.41602 34.1499 -9.14001 33.8999 -9.86402 33.8999C-10.588 33.8999 -11.312 34.1499 -11.864 34.6499C-12.416 35.1499 -13.14 35.3999 -13.864 35.3999M58.124 35.4139C57.4 35.4139 56.676 35.1639 56.124 34.6639C55.572 34.1639 54.848 33.9139 54.124 33.9139C53.4 33.9139 52.676 34.1639 52.124 34.6639C51.572 35.1639 50.848 35.4139 50.124 35.4139C49.4 35.4139 48.676 35.1639 48.124 34.6639C47.572 34.1639 46.848 33.9139 46.124 33.9139C45.4 33.9139 44.676 34.1639 44.124 34.6639C43.572 35.1639 42.848 35.4139 42.124 35.4139C41.4 35.4139 40.676 35.1639 40.124 34.6639C39.572 34.1639 38.848 33.9139 38.124 33.9139C37.4 33.9139 36.676 34.1639 36.124 34.6639C35.572 35.1639 34.848 35.4139 34.124 35.4139M34.125 35.4229C33.401 35.4229 32.677 35.1729 32.125 34.6729C31.573 34.1729 30.849 33.9229 30.125 33.9229C29.401 33.9229 28.677 34.1729 28.125 34.6729C27.573 35.1729 26.849 35.4229 26.125 35.4229C25.401 35.4229 24.677 35.1729 24.125 34.6729C23.573 34.1729 22.849 33.9229 22.125 33.9229C21.401 33.9229 20.677 34.1729 20.125 34.6729C19.573 35.1729 18.849 35.4229 18.125 35.4229C17.401 35.4229 16.677 35.1729 16.125 34.6729C15.573 34.1729 14.849 33.9229 14.125 33.9229C13.401 33.9229 12.677 34.1729 12.125 34.6729C11.573 35.1729 10.849 35.4229 10.125 35.4229" stroke="white" stroke-width="2"/>
<path d="M10.136 30.3999C9.41198 30.3999 8.68798 30.1499 8.13598 29.6499C7.58398 29.1499 6.85998 28.8999 6.13598 28.8999C5.41199 28.8999 4.68798 29.1499 4.13598 29.6499C3.58398 30.1499 2.85999 30.3999 2.13598 30.3999C1.41199 30.3999 0.687984 30.1499 0.135984 29.6499C-0.416016 29.1499 -1.14001 28.8999 -1.86402 28.8999C-2.58801 28.8999 -3.31202 29.1499 -3.86402 29.6499C-4.41602 30.1499 -5.14001 30.3999 -5.86402 30.3999C-6.58801 30.3999 -7.31202 30.1499 -7.86402 29.6499C-8.41602 29.1499 -9.14001 28.8999 -9.86402 28.8999C-10.588 28.8999 -11.312 29.1499 -11.864 29.6499C-12.416 30.1499 -13.14 30.3999 -13.864 30.3999M58.124 30.4139C57.4 30.4139 56.676 30.1639 56.124 29.6639C55.572 29.1639 54.848 28.9139 54.124 28.9139C53.4 28.9139 52.676 29.1639 52.124 29.6639C51.572 30.1639 50.848 30.4139 50.124 30.4139C49.4 30.4139 48.676 30.1639 48.124 29.6639C47.572 29.1639 46.848 28.9139 46.124 28.9139C45.4 28.9139 44.676 29.1639 44.124 29.6639C43.572 30.1639 42.848 30.4139 42.124 30.4139C41.4 30.4139 40.676 30.1639 40.124 29.6639C39.572 29.1639 38.848 28.9139 38.124 28.9139C37.4 28.9139 36.676 29.1639 36.124 29.6639C35.572 30.1639 34.848 30.4139 34.124 30.4139M34.125 30.4229C33.401 30.4229 32.677 30.1729 32.125 29.6729C31.573 29.1729 30.849 28.9229 30.125 28.9229C29.401 28.9229 28.677 29.1729 28.125 29.6729C27.573 30.1729 26.849 30.4229 26.125 30.4229C25.401 30.4229 24.677 30.1729 24.125 29.6729C23.573 29.1729 22.849 28.9229 22.125 28.9229C21.401 28.9229 20.677 29.1729 20.125 29.6729C19.573 30.1729 18.849 30.4229 18.125 30.4229C17.401 30.4229 16.677 30.1729 16.125 29.6729C15.573 29.1729 14.849 28.9229 14.125 28.9229C13.401 28.9229 12.677 29.1729 12.125 29.6729C11.573 30.1729 10.849 30.4229 10.125 30.4229" stroke="white" stroke-width="2"/>
<path d="M10.136 25.3999C9.41198 25.3999 8.68798 25.1499 8.13598 24.6499C7.58398 24.1499 6.85998 23.8999 6.13598 23.8999C5.41199 23.8999 4.68798 24.1499 4.13598 24.6499C3.58398 25.1499 2.85999 25.3999 2.13598 25.3999C1.41199 25.3999 0.687984 25.1499 0.135984 24.6499C-0.416016 24.1499 -1.14001 23.8999 -1.86402 23.8999C-2.58801 23.8999 -3.31202 24.1499 -3.86402 24.6499C-4.41602 25.1499 -5.14001 25.3999 -5.86402 25.3999C-6.58801 25.3999 -7.31202 25.1499 -7.86402 24.6499C-8.41602 24.1499 -9.14001 23.8999 -9.86402 23.8999C-10.588 23.8999 -11.312 24.1499 -11.864 24.6499C-12.416 25.1499 -13.14 25.3999 -13.864 25.3999M58.124 25.4139C57.4 25.4139 56.676 25.1639 56.124 24.6639C55.572 24.1639 54.848 23.9139 54.124 23.9139C53.4 23.9139 52.676 24.1639 52.124 24.6639C51.572 25.1639 50.848 25.4139 50.124 25.4139C49.4 25.4139 48.676 25.1639 48.124 24.6639C47.572 24.1639 46.848 23.9139 46.124 23.9139C45.4 23.9139 44.676 24.1639 44.124 24.6639C43.572 25.1639 42.848 25.4139 42.124 25.4139C41.4 25.4139 40.676 25.1639 40.124 24.6639C39.572 24.1639 38.848 23.9139 38.124 23.9139C37.4 23.9139 36.676 24.1639 36.124 24.6639C35.572 25.1639 34.848 25.4139 34.124 25.4139M34.125 25.4229C33.401 25.4229 32.677 25.1729 32.125 24.6729C31.573 24.1729 30.849 23.9229 30.125 23.9229C29.401 23.9229 28.677 24.1729 28.125 24.6729C27.573 25.1729 26.849 25.4229 26.125 25.4229C25.401 25.4229 24.677 25.1729 24.125 24.6729C23.573 24.1729 22.849 23.9229 22.125 23.9229C21.401 23.9229 20.677 24.1729 20.125 24.6729C19.573 25.1729 18.849 25.4229 18.125 25.4229C17.401 25.4229 16.677 25.1729 16.125 24.6729C15.573 24.1729 14.849 23.9229 14.125 23.9229C13.401 23.9229 12.677 24.1729 12.125 24.6729C11.573 25.1729 10.849 25.4229 10.125 25.4229" stroke="white" stroke-width="2"/>
</g>
</svg>
