<svg width="50" height="50" viewBox="0 0 50 50" fill="none" xmlns="http://www.w3.org/2000/svg">
<circle cx="25" cy="25" r="25" fill="white"/>
<path fill-rule="evenodd" clip-rule="evenodd" d="M21.9097 25.9696L18.5389 24.846C15.0091 23.6694 13.2441 23.0811 13.2441 22C13.2441 20.9188 15.0091 20.3305 18.5389 19.1539L31.3086 14.8973C33.7923 14.0694 35.0342 13.6555 35.6897 14.311C36.3452 14.9665 35.9313 16.2084 35.1034 18.6921L30.8468 31.4618C29.6702 34.9916 29.0819 36.7565 28.0007 36.7565C26.9196 36.7565 26.3313 34.9916 25.1547 31.4618L24.0311 28.091L30.5614 21.5606C31.1472 20.9748 31.1472 20.0251 30.5614 19.4393C29.9756 18.8535 29.0259 18.8535 28.4401 19.4393L21.9097 25.9696Z" fill="#1F4B43"/>
</svg>
