<svg width="27" height="53" viewBox="0 0 27 53" fill="none" xmlns="http://www.w3.org/2000/svg">
<path d="M13.6914 21.25C20.3184 21.25 25.6914 27.112 25.6914 32.974C25.6914 37.77 24.0634 42.529 20.8064 47.25H6.57641C3.31941 42.529 1.69141 37.77 1.69141 32.974C1.69141 26.499 7.06441 21.25 13.6914 21.25Z" stroke="white" stroke-width="2"/>
<path d="M13.6914 37.875C15.0034 37.875 16.0664 38.938 16.0664 40.25C16.0664 41.562 15.0034 42.625 13.6914 42.625C12.3794 42.625 11.3164 41.562 11.3164 40.25C11.3164 38.938 12.3794 37.875 13.6914 37.875Z" stroke="white" stroke-width="2"/>
<path d="M21.6914 33.25C21.6914 28.832 18.1094 25.25 13.6914 25.25C9.27341 25.25 5.69141 28.832 5.69141 33.25C16.3584 33.25 21.6914 33.25 21.6914 33.25Z" stroke="white" stroke-width="2"/>
<path d="M13.6914 33.25L16.6914 29.25" stroke="white" stroke-width="2" stroke-linejoin="round"/>
<path d="M13.6914 48.25V52.25" stroke="white" stroke-width="2"/>
</svg>
