<svg width="50" height="50" viewBox="0 0 50 50" fill="none" xmlns="http://www.w3.org/2000/svg">
<circle cx="25" cy="25" r="25" fill="white"/>
<path d="M15.5633 27.3853L24.2541 35.5493C24.5535 35.8305 24.7032 35.9712 24.8796 36.0058C24.9591 36.0214 25.0409 36.0214 25.1204 36.0058C25.2968 35.9712 25.4465 35.8305 25.7459 35.5493L25.7459 35.5493L34.4367 27.3853C36.8819 25.0882 37.1788 21.3082 35.1223 18.6576L34.7356 18.1592C32.2753 14.9882 27.337 15.52 25.6083 19.1421C25.3641 19.6537 24.6359 19.6537 24.3917 19.1421C22.663 15.52 17.7246 14.9882 15.2644 18.1592L14.8777 18.6576C12.8212 21.3083 13.1181 25.0882 15.5633 27.3853Z" fill="#FF4141" stroke="#FF4141" stroke-width="2.5"/>
</svg>
